<svg width="94" height="84" viewBox="0 0 94 84" fill="none" xmlns="http://www.w3.org/2000/svg">
<g clip-path="url(#clip0)">
<path d="M20.9145 58.4062C20.1115 58.4062 19.4605 58.9939 19.4605 59.7188C19.4605 60.4424 18.8082 61.0312 18.0065 61.0312C17.2048 61.0312 16.5525 60.4424 16.5525 59.7188C16.5525 58.9951 17.2048 58.4062 18.0065 58.4062C18.8095 58.4062 19.4605 57.8186 19.4605 57.0938C19.4605 56.3689 18.8095 55.7812 18.0065 55.7812C15.6012 55.7812 13.6445 57.5477 13.6445 59.7188C13.6445 61.8898 15.6012 63.6562 18.0065 63.6562C20.4118 63.6562 22.3685 61.8898 22.3685 59.7188C22.3685 58.9939 21.7175 58.4062 20.9145 58.4062Z" fill="black"/>
<path d="M79.0743 58.4062C78.2713 58.4062 77.6203 58.9939 77.6203 59.7188C77.6203 60.4424 76.968 61.0312 76.1663 61.0312C75.3646 61.0312 74.7123 60.4424 74.7123 59.7188C74.7123 58.9951 75.3646 58.4062 76.1663 58.4062C76.9693 58.4062 77.6203 57.8186 77.6203 57.0938C77.6203 56.3689 76.9693 55.7812 76.1663 55.7812C73.761 55.7812 71.8043 57.5477 71.8043 59.7188C71.8043 61.8898 73.761 63.6562 76.1663 63.6562C78.5716 63.6562 80.5283 61.8898 80.5283 59.7188C80.5283 58.9939 79.8773 58.4062 79.0743 58.4062Z" fill="black"/>
<path d="M93.6142 41.3438C93.6142 40.9777 93.4479 40.647 93.1801 40.4089C92.5584 38.8577 91.2987 37.5552 89.5955 36.7864C89.5501 36.7659 89.5037 36.7477 89.4561 36.7316L84.6508 35.1033L81.7236 25.0635C81.7194 25.0491 81.715 25.0346 81.7101 25.0204C80.7807 22.2233 77.9823 20.3438 74.747 20.3438H64.5343V17.7188C64.5343 16.2714 63.2297 15.0938 61.6263 15.0938H3.46658C1.86319 15.0938 0.558594 16.2714 0.558594 17.7188V54.4688C0.558594 55.9161 1.86319 57.0938 3.46658 57.0938H8.25403C8.11318 57.5193 8.0054 57.9575 7.93397 58.4062H2.01259C1.20962 58.4062 0.558594 58.9939 0.558594 59.7188C0.558594 60.4436 1.20962 61.0312 2.01259 61.0312H7.93416C8.64207 65.4777 12.8883 68.9062 18.0065 68.9062C23.1247 68.9062 27.3711 65.4777 28.0789 61.0312H31.0924C31.0924 63.2023 33.0492 64.9688 35.4544 64.9688H44.1784C46.5837 64.9688 48.5404 63.2023 48.5404 61.0312H66.0939C66.8018 65.4777 71.048 68.9062 76.1662 68.9062C81.2845 68.9062 85.5309 65.4777 86.2386 61.0312H92.1602C92.9631 61.0312 93.6142 60.4436 93.6142 59.7188C93.6142 58.9939 92.9631 58.4062 92.1602 58.4062H86.2386C86.1672 57.9575 86.0594 57.5193 85.9185 57.0938H90.7062C92.3096 57.0938 93.6142 55.9161 93.6142 54.4688V42.6562C93.6142 42.3478 93.5903 42.0435 93.5445 41.7444C93.5894 41.6181 93.6142 41.4835 93.6142 41.3438ZM90.7062 49.2188H89.2522V47.9062H90.7062V49.2188ZM89.5973 40.0312H64.5343V37.4062H83.1725L88.358 39.1634C88.8356 39.3876 89.2518 39.6836 89.5973 40.0312ZM74.747 22.9688C76.6804 22.9688 78.3539 24.0875 78.9183 25.7549L81.55 34.7812H64.5343V22.9688H74.747ZM9.28273 54.4688H3.46658V47.9062H48.5411C49.3441 47.9062 49.9951 47.3186 49.9951 46.5938C49.9951 45.8689 49.3441 45.2812 48.5411 45.2812H3.46658V17.7188H61.6263V54.4688H44.1784H35.4544H26.7308C26.6107 54.4688 26.4946 54.4833 26.3828 54.5081C24.5449 52.1079 21.4765 50.5312 18.0065 50.5312C14.5366 50.5312 11.4683 52.1079 9.63024 54.5081C9.51864 54.4833 9.40269 54.4688 9.28273 54.4688ZM18.0065 66.2812C13.9979 66.2812 10.7365 63.3373 10.7365 59.7188C10.7365 56.1002 13.9979 53.1562 18.0065 53.1562C22.0152 53.1562 25.2765 56.1002 25.2765 59.7188C25.2765 63.3373 22.0152 66.2812 18.0065 66.2812ZM28.0789 58.4062C28.0074 57.9575 27.8997 57.5193 27.7588 57.0938H31.3425C31.1811 57.5046 31.0924 57.9462 31.0924 58.4062H28.0789ZM45.6324 61.0312C45.6324 61.7549 44.9801 62.3438 44.1784 62.3438H35.4544C34.6527 62.3438 34.0004 61.7549 34.0004 61.0312V59.7219C34.0004 59.7207 34.0006 59.7197 34.0006 59.7188C34.0006 59.7178 34.0004 59.7166 34.0004 59.7156V58.4062C34.0004 57.6826 34.6527 57.0938 35.4544 57.0938H44.1784C44.9801 57.0938 45.6324 57.6826 45.6324 58.4062V61.0312ZM48.2903 57.0938H63.0803H66.4138C66.2729 57.5193 66.1651 57.9575 66.0937 58.4062H48.5404C48.5404 57.9462 48.4517 57.5046 48.2903 57.0938ZM76.1662 66.2812C72.1576 66.2812 68.8963 63.3373 68.8963 59.7188C68.8963 56.1002 72.1576 53.1562 76.1662 53.1562C80.1749 53.1562 83.4362 56.1002 83.4362 59.7188C83.4362 63.3373 80.1749 66.2812 76.1662 66.2812ZM84.8902 54.4688C84.7702 54.4688 84.6541 54.4833 84.5425 54.5081C82.7045 52.1079 79.6362 50.5312 76.1662 50.5312C72.6963 50.5312 69.628 52.1079 67.79 54.5081C67.6784 54.4833 67.5624 54.4688 67.4425 54.4688H64.5345V42.6562H90.7063V45.2812H89.2524C87.649 45.2812 86.3444 46.4589 86.3444 47.9062V49.2188C86.3444 50.6661 87.649 51.8438 89.2524 51.8438H90.7063V54.4688H84.8902Z" fill="black"/>
<path d="M36.9083 58.4062C36.5248 58.4062 36.1504 58.5472 35.8796 58.7902C35.6088 59.0346 35.4543 59.3742 35.4543 59.7188C35.4543 60.0648 35.6088 60.4029 35.8796 60.6474C36.1504 60.8916 36.5248 61.0313 36.9083 61.0313C37.2918 61.0313 37.6662 60.8916 37.937 60.6474C38.2078 60.4029 38.3623 60.0631 38.3623 59.7188C38.3623 59.3741 38.2078 59.0346 37.937 58.7902C37.6662 58.5472 37.2918 58.4062 36.9083 58.4062Z" fill="black"/>
<path d="M54.3573 47.9062H57.2646C58.0676 47.9062 58.7186 47.3186 58.7186 46.5938C58.7186 45.8689 58.0676 45.2812 57.2646 45.2812H54.3573C53.5543 45.2812 52.9033 45.8689 52.9033 46.5938C52.9033 47.3186 53.5542 47.9062 54.3573 47.9062Z" fill="black"/>
<g clip-path="url(#clip1)">
<path d="M43.2061 33.1675C42.9801 31.1149 41.9642 29.1797 40.3455 27.7184C38.9621 26.4698 37.2689 25.6673 35.4874 25.3106V24.1826C36.215 24.0192 36.7559 23.4246 36.7559 22.7179C36.7559 21.8856 36.0058 21.2085 35.0838 21.2085H31.5428C30.6208 21.2085 29.8707 21.8856 29.8707 22.7179C29.8707 23.4246 30.4116 24.0191 31.1392 24.1826V25.3137C29.3631 25.672 27.6755 26.4733 26.2961 27.7185C25.9942 27.991 25.7159 28.2768 25.4611 28.5739C25.4487 28.5731 25.4364 28.5722 25.4238 28.5722H21.9192C21.6476 28.5722 21.4274 28.771 21.4274 29.0162C21.4274 29.2614 21.6476 29.4601 21.9192 29.4601H24.7919C24.4313 30.005 24.1406 30.5773 23.9192 31.1664H18.5668C18.2952 31.1664 18.075 31.3652 18.075 31.6104C18.075 31.8556 18.2952 32.0543 18.5668 32.0543H23.6413C23.4996 32.616 23.4183 33.1875 23.3973 33.7607H21.2225C20.9509 33.7607 20.7307 33.9595 20.7307 34.2046C20.7307 34.4498 20.9509 34.6486 21.2225 34.6486H23.4129C23.4545 35.2232 23.5568 35.7948 23.72 36.355H20.5339C20.2624 36.355 20.0421 36.5537 20.0421 36.7989C20.0421 37.0441 20.2624 37.2428 20.5339 37.2428H24.0339C24.5163 38.3949 25.2703 39.4747 26.2961 40.4007C27.9164 41.8633 30.0624 42.7806 32.3388 42.9836C32.6636 43.0125 32.9888 43.0269 33.3135 43.0269C35.2326 43.0269 37.1273 42.5255 38.735 41.5804C38.9626 41.4466 39.0269 41.1716 38.8787 40.9662C38.7305 40.7607 38.4258 40.7026 38.1982 40.8364C34.679 42.905 29.966 42.4578 26.9916 39.7729C23.5017 36.6226 23.5017 31.4967 26.9916 28.3464C30.4815 25.1961 36.1599 25.1961 39.6499 28.3464C42.6203 31.0278 43.1185 35.2785 40.8344 38.4537C40.6865 38.6593 40.7513 38.9343 40.979 39.0678C41.2069 39.2013 41.5115 39.1429 41.6593 38.9372C42.8797 37.2407 43.429 35.1917 43.2061 33.1675ZM30.8543 22.7179C30.8543 22.3752 31.1632 22.0964 31.5428 22.0964H35.0838C35.4635 22.0964 35.7723 22.3752 35.7723 22.7179C35.7723 23.0607 35.4635 23.3395 35.0838 23.3395H34.9956H31.631H31.5428C31.1632 23.3395 30.8543 23.0606 30.8543 22.7179ZM32.1228 25.1611V24.2273H34.5038V25.1595C33.7131 25.0746 32.9133 25.0751 32.1228 25.1611Z" fill="black"/>
<path d="M39.998 39.6426C39.8682 39.6426 39.7418 39.6901 39.6504 39.7727C39.5584 39.8552 39.5062 39.9698 39.5062 40.0865C39.5062 40.2033 39.5584 40.3178 39.6504 40.4004C39.7418 40.4834 39.8682 40.5304 39.998 40.5304C40.1274 40.5304 40.2537 40.4834 40.3457 40.4004C40.4372 40.3178 40.4898 40.2033 40.4898 40.0865C40.4898 39.9698 40.4372 39.8552 40.3457 39.7727C40.2537 39.6901 40.1273 39.6426 39.998 39.6426Z" fill="black"/>
<path d="M33.3206 27.1726C29.1139 27.1726 25.6914 30.262 25.6914 34.0594C25.6914 37.8568 29.1139 40.9462 33.3206 40.9462C37.5274 40.9462 40.9499 37.8568 40.9499 34.0594C40.9499 30.262 37.5274 27.1726 33.3206 27.1726ZM33.3206 40.0583C29.6562 40.0583 26.675 37.3672 26.675 34.0594C26.675 30.7516 29.6562 28.0605 33.3206 28.0605C36.9851 28.0605 39.9663 30.7516 39.9663 34.0594C39.9663 37.3672 36.9851 40.0583 33.3206 40.0583Z" fill="black"/>
<path d="M36.4317 30.6237L33.9958 32.8225C33.7921 32.7315 33.563 32.6802 33.3207 32.6802C33.0785 32.6802 32.8494 32.7315 32.6457 32.8225L31.5555 31.8384C31.3634 31.665 31.0521 31.665 30.86 31.8384C30.6679 32.0117 30.6679 32.2928 30.86 32.4662L31.9501 33.4503C31.8494 33.6342 31.7925 33.841 31.7925 34.0596C31.7925 34.8203 32.478 35.4391 33.3207 35.4391C34.1634 35.4391 34.849 34.8203 34.849 34.0596C34.849 33.841 34.7921 33.6342 34.6913 33.4503L37.0557 31.316L37.1272 31.2515C37.3192 31.0781 37.3192 30.797 37.1272 30.6237C36.9351 30.4503 36.6238 30.4503 36.4317 30.6237ZM33.3207 34.5513C33.0205 34.5513 32.7761 34.3308 32.7761 34.0597C32.7761 33.7886 33.0205 33.5681 33.3207 33.5681C33.621 33.5681 33.8654 33.7886 33.8654 34.0597C33.8654 34.3308 33.621 34.5513 33.3207 34.5513Z" fill="black"/>
<path d="M38.5789 33.6208H38.1233C37.8517 33.6208 37.6315 33.8196 37.6315 34.0648C37.6315 34.31 37.8517 34.5087 38.1233 34.5087H38.5789C38.8505 34.5087 39.0707 34.31 39.0707 34.0648C39.0707 33.8196 38.8505 33.6208 38.5789 33.6208Z" fill="black"/>
<path d="M28.5179 33.6101H28.0623C27.7908 33.6101 27.5706 33.8089 27.5706 34.054C27.5706 34.2992 27.7908 34.498 28.0623 34.498H28.5179C28.7895 34.498 29.0097 34.2992 29.0097 34.054C29.0097 33.8089 28.7895 33.6101 28.5179 33.6101Z" fill="black"/>
<path d="M33.3268 30.168C33.5983 30.168 33.8185 29.9693 33.8185 29.7241V29.3128C33.8185 29.0676 33.5983 28.8689 33.3268 28.8689C33.0552 28.8689 32.835 29.0676 32.835 29.3128V29.7241C32.835 29.9693 33.0552 30.168 33.3268 30.168Z" fill="black"/>
<path d="M33.3145 37.9509C33.043 37.9509 32.8228 38.1497 32.8228 38.3949V38.8061C32.8228 39.0513 33.043 39.2501 33.3145 39.2501C33.5861 39.2501 33.8063 39.0513 33.8063 38.8061V38.3949C33.8063 38.1497 33.5861 37.9509 33.3145 37.9509Z" fill="black"/>
<path d="M18.5667 36.3547C18.4374 36.3547 18.3105 36.4022 18.219 36.4848C18.1276 36.5674 18.075 36.6819 18.075 36.7987C18.075 36.9159 18.1275 37.03 18.219 37.1125C18.3106 37.1951 18.4374 37.2426 18.5667 37.2426C18.6961 37.2426 18.823 37.1951 18.9144 37.1125C19.0059 37.03 19.0585 36.9154 19.0585 36.7987C19.0585 36.6819 19.0059 36.5674 18.9144 36.4848C18.823 36.4022 18.6961 36.3547 18.5667 36.3547Z" fill="black"/>
</g>
</g>
<defs>
<clipPath id="clip0">
<rect width="93.0556" height="84" fill="white" transform="translate(0.558594)"/>
</clipPath>
<clipPath id="clip1">
<rect width="25.1797" height="22.7294" fill="white" transform="translate(18.075 20.7529)"/>
</clipPath>
</defs>
</svg>
