<svg width="58" height="64" viewBox="0 0 58 64" fill="none" xmlns="http://www.w3.org/2000/svg">
<path d="M33.6776 48.9121C34.3665 48.9121 34.9249 48.3537 34.9249 47.6648C34.9249 46.9759 34.3665 46.4175 33.6776 46.4175C32.9887 46.4175 32.4303 46.9759 32.4303 47.6648C32.4303 48.3537 32.9887 48.9121 33.6776 48.9121Z" fill="black"/>
<path d="M52.3871 13.4086H34.9247V6.23656C34.9247 5.39462 34.7588 4.57763 34.4345 3.80929C34.1202 3.06589 33.6699 2.39983 33.0974 1.82731C32.5249 1.25355 31.8588 0.804516 31.1154 0.490194C30.3471 0.164645 29.5301 0 28.6882 0H6.23656C5.39462 0 4.57763 0.164645 3.80929 0.490194C3.06589 0.804516 2.39983 1.25355 1.82731 1.82731C1.25355 2.39983 0.804516 3.06589 0.490194 3.80929C0.164645 4.57763 0 5.39462 0 6.23656V57.6258C0 58.4677 0.164645 59.2847 0.490194 60.0531C0.804516 60.7965 1.25355 61.4625 1.82731 62.0351C2.39983 62.6088 3.06589 63.0579 3.80929 63.3722C4.57763 63.6977 5.39462 63.8624 6.23656 63.8624H28.6882C29.5301 63.8624 30.3471 63.6977 31.1154 63.3722C31.8588 63.0579 32.5249 62.6088 33.0974 62.0351C33.6699 61.4625 34.1202 60.7965 34.4345 60.0531C34.7588 59.2847 34.9247 58.4677 34.9247 57.6258V53.2777C34.9247 52.5904 34.3647 52.0304 33.6774 52.0304C32.9902 52.0304 32.4314 52.5892 32.4301 53.2764V57.6258C32.4264 59.6851 30.7475 61.364 28.6882 61.3677H6.23656C4.17725 61.364 2.49837 59.6851 2.49462 57.6258V6.23656C2.49837 4.17725 4.17725 2.49837 6.23656 2.49462H28.6882C30.7475 2.49837 32.4264 4.17725 32.4301 6.23656V13.4086H17.4624C14.3678 13.4086 11.8495 15.9269 11.8495 19.0215V23.3871C11.8495 26.4817 14.3678 29 17.4624 29C20.1291 29 22.3668 27.1315 22.9356 24.6344H32.4301V42.0519C32.4301 42.7404 32.9902 43.2992 33.6774 43.2992C34.3659 43.2992 34.9247 42.7404 34.9247 42.0519V24.6344H52.3871C55.4817 24.6344 58 22.1161 58 19.0215C58 15.9269 55.4817 13.4086 52.3871 13.4086ZM52.3871 22.1398H21.828C21.1394 22.1398 20.5806 22.6986 20.5806 23.3871C20.5806 25.1071 19.1824 26.5054 17.4624 26.5054C15.7423 26.5054 14.3441 25.1071 14.3441 23.3871V19.0215C14.3441 17.3015 15.7423 15.9032 17.4624 15.9032H52.3871C54.1071 15.9032 55.5054 17.3015 55.5054 19.0215C55.5054 20.7415 54.1071 22.1398 52.3871 22.1398Z" fill="black"/>
<path d="M17.462 37.1074C13.5067 37.1074 10.2899 40.3242 10.2899 44.2795V53.9461C10.2899 54.6346 10.8487 55.1934 11.5372 55.1934H23.3867C24.0752 55.1934 24.634 54.6346 24.634 53.9461V44.2795C24.634 40.3242 21.4172 37.1074 17.462 37.1074ZM22.1394 52.6988H12.7845V44.2795C12.7845 41.7 14.8825 39.602 17.462 39.602C20.0414 39.602 22.1394 41.7 22.1394 44.2795V52.6988Z" fill="black"/>
</svg>
