<svg width="40" height="40" viewBox="0 0 40 40" fill="none" xmlns="http://www.w3.org/2000/svg">
<g clip-path="url(#clip0)">
<path d="M15.1549 14.7274C13.4015 14.7274 11.6032 14.0674 10.2399 12.7557C8.81153 11.3841 8.46487 9.65238 8.0982 7.81905C7.69153 5.77905 7.26986 3.66905 5.25486 1.73238C5.02153 1.50738 4.93986 1.16572 5.04486 0.860717C5.15153 0.552384 5.42653 0.33405 5.74986 0.30405L5.9782 0.280717C10.1182 -0.14095 15.2699 -0.65095 19.3165 3.23738C20.5982 4.46738 21.3732 6.35572 21.3915 8.28405C21.4099 10.1207 20.7649 11.7874 19.5749 12.9741C18.4032 14.1457 16.7999 14.7274 15.1549 14.7274ZM7.54153 1.80405C8.98153 3.72405 9.37653 5.70738 9.7332 7.49405C10.0599 9.12905 10.3415 10.5441 11.3932 11.5557C13.1782 13.2691 16.4182 13.7774 18.3949 11.7991C19.2649 10.9307 19.7365 9.68738 19.7232 8.30238C19.7082 6.81072 19.1249 5.36738 18.1599 4.44072C15.0715 1.47238 11.1682 1.48405 7.54153 1.80405V1.80405Z" fill="white"/>
<path d="M30.0283 11.6662C29.9116 11.6662 29.7933 11.6628 29.6766 11.6545C28.3233 11.5745 27.1483 11.0378 26.3666 10.1428C24.1399 7.59449 24.8766 4.11282 26.8366 2.34782C30.1416 -0.627177 34.1866 -0.0971769 37.4333 0.331156L37.6083 0.35449C37.9299 0.396156 38.1983 0.622823 38.2966 0.93449C38.3933 1.24616 38.2999 1.58449 38.0583 1.80282C36.4883 3.21616 36.1149 4.81449 35.7549 6.35949C35.4333 7.73782 35.1016 9.16282 33.9133 10.2328C32.8999 11.1428 31.4683 11.6662 30.0283 11.6662V11.6662ZM33.5483 1.66449C31.5816 1.66449 29.6266 2.07616 27.9499 3.58782C26.5766 4.82282 26.0616 7.26116 27.6199 9.04449C28.1066 9.60116 28.8716 9.93616 29.7749 9.98949C30.8883 10.0478 32.0249 9.68116 32.7966 8.98949C33.5966 8.26949 33.8333 7.25782 34.1316 5.97616C34.4233 4.72116 34.7716 3.23282 35.8116 1.80616C35.0666 1.72616 34.3049 1.66449 33.5483 1.66449V1.66449ZM27.3933 2.96782H27.4099H27.3933Z" fill="white"/>
<path d="M22.7149 20.1001C22.3216 20.1001 21.9699 19.8201 21.8966 19.4185C20.7999 13.4935 15.1666 8.61513 15.1082 8.5668C14.7582 8.26846 14.7182 7.7418 15.0166 7.39346C15.3149 7.0418 15.8399 6.99846 16.1916 7.30013C16.4416 7.51346 22.3299 12.6001 23.5366 19.1151C23.6199 19.5668 23.3216 20.0018 22.8682 20.0851C22.8166 20.0951 22.7666 20.1001 22.7149 20.1001V20.1001Z" fill="white"/>
<path d="M5.83333 36.6667H0.833333C0.373333 36.6667 0 36.2933 0 35.8333V20.8333C0 20.3733 0.373333 20 0.833333 20C6.50167 20 9.49667 21.91 9.62167 21.9917C9.92 22.1867 10.0617 22.55 9.975 22.895L6.64167 36.0383C6.54667 36.4083 6.215 36.6667 5.83333 36.6667V36.6667ZM1.66667 35H5.185L8.2 23.1167C7.26167 22.6683 5.05167 21.8067 1.66667 21.6817V35Z" fill="white"/>
<path d="M21.6669 39.9998C17.7336 39.9998 10.1286 36.6932 5.94357 34.7198C5.5269 34.5248 5.35023 34.0265 5.54523 33.6115C5.74023 33.1932 6.23857 33.0182 6.65523 33.2132C9.9219 34.7532 17.9219 38.3332 21.6669 38.3332C25.7202 38.3332 35.2752 33.5715 38.0236 32.1565C37.5902 31.5898 36.6952 30.8332 35.0002 30.8332C33.4619 30.8332 31.5119 31.4482 29.6252 32.0448C27.6202 32.6765 25.5452 33.3332 23.7502 33.3332C20.3102 33.3332 15.7419 31.6865 15.5486 31.6165C15.1169 31.4598 14.8936 30.9815 15.0502 30.5482C15.2069 30.1165 15.6836 29.8948 16.1186 30.0498C16.1619 30.0665 20.6052 31.6665 23.7502 31.6665C25.2886 31.6665 27.2386 31.0515 29.1252 30.4548C31.1302 29.8232 33.2052 29.1665 35.0002 29.1665C38.8886 29.1665 39.9152 32.1115 39.9569 32.2365C40.0852 32.6215 39.9186 33.0432 39.5586 33.2365C39.0402 33.5098 26.8152 39.9998 21.6669 39.9998V39.9998Z" fill="white"/>
<path d="M27.5 32.65C27.04 32.65 26.6666 32.2767 26.6666 31.8167V30.9833C26.6666 29.82 25.8833 28.8233 24.76 28.5633L8.66996 24.6783C8.22163 24.57 7.94663 24.12 8.05496 23.6717C8.16163 23.2217 8.61996 22.9567 9.05996 23.0567L25.1433 26.94C27.02 27.3783 28.3333 29.0417 28.3333 30.9833V31.8167C28.3333 32.2767 27.96 32.65 27.5 32.65V32.65Z" fill="white"/>
<path d="M22.7166 20.0967C22.715 20.0967 22.7133 20.0967 22.7116 20.0967C22.2533 20.0933 21.8816 19.7217 21.8833 19.2633C21.8833 18.975 21.9883 12.185 29.57 7.62C29.9633 7.38334 30.475 7.50834 30.7133 7.905C30.9516 8.29834 30.8233 8.81167 30.43 9.05C23.685 13.1117 23.5533 19.0217 23.5516 19.2717C23.5466 19.7267 23.175 20.0967 22.7166 20.0967Z" fill="white"/>
</g>
<defs>
<clipPath id="clip0">
<rect width="40" height="40" fill="white"/>
</clipPath>
</defs>
</svg>
