<svg width="40" height="33" viewBox="0 0 40 33" fill="none" xmlns="http://www.w3.org/2000/svg">
<path d="M1.17188 25.285H7.30152L20.453 32.715C21.9292 33.5489 23.7353 32.4531 23.7353 30.7242V2.27587C23.7353 0.547853 21.93 -0.549265 20.453 0.285119L7.30152 7.71504H1.17188C0.52469 7.71504 0 8.2535 0 8.91767V24.0824C0 24.7466 0.52469 25.285 1.17188 25.285V25.285ZM21.3915 2.50052V30.4995L8.77465 23.3716V9.62842L21.3915 2.50052ZM2.34376 10.1203H6.43089V22.8798H2.34376V10.1203Z" fill="white"/>
<path d="M33.1996 3.7606C32.742 4.23027 32.7421 4.99178 33.1999 5.46136C36.0733 8.40933 37.6557 12.3297 37.6557 16.5001C37.6557 20.6704 36.0733 24.5907 33.1999 27.5387C32.467 28.2905 32.9834 29.5923 34.0284 29.5923C34.3585 29.5923 34.6567 29.4521 34.8696 29.2267C38.1779 25.8257 39.9995 21.3068 39.9995 16.5001C39.9995 11.6871 38.1732 7.16276 34.8569 3.76036C34.3992 3.2907 33.6572 3.29086 33.1996 3.7606V3.7606Z" fill="white"/>
<path d="M29.8861 24.1379C29.4286 24.6076 29.4287 25.3691 29.8864 25.8386C30.344 26.3081 31.0861 26.3081 31.5437 25.8383C33.9741 23.3433 35.3126 20.0268 35.3126 16.4999C35.3126 12.973 33.9741 9.65663 31.5436 7.16149C31.0861 6.69175 30.3441 6.69159 29.8864 7.16117C29.4286 7.63076 29.4285 8.39218 29.8861 8.86193C31.874 10.9028 32.9688 13.6154 32.9688 16.4999C32.9688 19.3845 31.874 22.097 29.8861 24.1379V24.1379Z" fill="white"/>
<path d="M26.5715 22.4364C27.029 22.9061 27.7709 22.9065 28.2288 22.4369C29.7742 20.8518 30.6254 18.7434 30.6254 16.4999C30.6254 14.2564 29.7742 12.148 28.2288 10.5629C27.771 10.0934 27.0291 10.0937 26.5716 10.5634C26.1141 11.0332 26.1143 11.7947 26.572 12.2642C27.6745 13.3949 28.2817 14.8993 28.2817 16.4999C28.2817 18.1005 27.6745 19.6048 26.572 20.7356C26.1142 21.2051 26.114 21.9666 26.5715 22.4364V22.4364Z" fill="white"/>
</svg>
