<svg width="40" height="40" viewBox="0 0 40 40" fill="none" xmlns="http://www.w3.org/2000/svg">
<g clip-path="url(#clip0)">
<path d="M38 21.3338H31.3653C31.5053 19.4392 32.0613 17.0438 33.2187 15.8858C35.605 13.3777 37.0481 10.1198 37.302 6.66718H39.3333C39.5951 6.6674 39.8328 6.51441 39.941 6.27605C40.0492 6.03768 40.0078 5.75806 39.8353 5.56118L35.1687 0.227843C35.0383 0.0895951 34.8567 0.0112305 34.6667 0.0112305C34.4766 0.0112305 34.295 0.0895951 34.1647 0.227843L29.498 5.56118C29.3255 5.75806 29.2842 6.03768 29.3924 6.27605C29.5006 6.51441 29.7382 6.6674 30 6.66718L31.9413 6.67051C31.7206 8.7072 30.8458 10.6175 29.448 12.1152C26.656 14.9065 26.1233 19.4385 26.0233 21.2565C26.0233 21.2825 26.0267 21.3078 26.0273 21.3338H19.3653C19.5053 19.4392 20.0613 17.0438 21.2187 15.8858C23.605 13.3777 25.0481 10.1198 25.302 6.66718H27.3333C27.5951 6.6674 27.8328 6.51441 27.941 6.27605C28.0492 6.03768 28.0078 5.75806 27.8353 5.56118L23.1687 0.227843C23.0383 0.0895951 22.8567 0.0112305 22.6667 0.0112305C22.4766 0.0112305 22.295 0.0895951 22.1647 0.227843L17.498 5.56118C17.3255 5.75806 17.2842 6.03768 17.3924 6.27605C17.5006 6.51441 17.7382 6.6674 18 6.66718L19.9413 6.67051C19.7206 8.7072 18.8458 10.6175 17.448 12.1152C14.656 14.9065 14.1233 19.4385 14.0233 21.2565C14.0233 21.2825 14.0233 21.3078 14.0273 21.3338H7.34467C7.48467 19.4392 8.04067 17.0438 9.198 15.8858C11.5842 13.3777 13.0271 10.1198 13.2807 6.66718H15.3127C15.5744 6.6674 15.8121 6.51441 15.9203 6.27605C16.0285 6.03768 15.9872 5.75806 15.8147 5.56118L11.148 0.227843C11.0176 0.0895951 10.836 0.0112305 10.646 0.0112305C10.456 0.0112305 10.2744 0.0895951 10.144 0.227843L5.47733 5.56118C5.30483 5.75806 5.26351 6.03768 5.3717 6.27605C5.47989 6.51441 5.71757 6.6674 5.97933 6.66718H7.92067C7.69924 8.70387 6.82454 10.6142 5.42733 12.1125C2.63533 14.9065 2.102 19.4385 2 21.2565V21.3338C0.895431 21.3338 0 22.2293 0 23.3338C0 24.4384 0.895431 25.3338 2 25.3338H2.82267L1.42867 27.6572C1.3008 27.8615 1.29319 28.119 1.40877 28.3305C1.52435 28.542 1.74511 28.6747 1.98614 28.6775C2.22717 28.6802 2.45093 28.5527 2.57133 28.3438L4.37733 25.3338H6.156L4.762 27.6572C4.63413 27.8615 4.62652 28.119 4.7421 28.3305C4.85768 28.542 5.07844 28.6747 5.31948 28.6775C5.56051 28.6802 5.78426 28.5527 5.90467 28.3438L7.71067 25.3338H9.48933L8.09533 27.6572C7.96746 27.8615 7.95986 28.119 8.07544 28.3305C8.19102 28.542 8.41178 28.6747 8.65281 28.6775C8.89384 28.6802 9.11759 28.5527 9.238 28.3438L11.044 25.3338H12.8227L11.4287 27.6572C11.3008 27.8615 11.2932 28.119 11.4088 28.3305C11.5243 28.542 11.7451 28.6747 11.9861 28.6775C12.2272 28.6802 12.4509 28.5527 12.5713 28.3438L14.3773 25.3338H16.156L14.762 27.6572C14.6341 27.8615 14.6265 28.119 14.7421 28.3305C14.8577 28.542 15.0784 28.6747 15.3195 28.6775C15.5605 28.6802 15.7843 28.5527 15.9047 28.3438L17.7107 25.3338H19.4893L18.0953 27.6572C17.9675 27.8615 17.9599 28.119 18.0754 28.3305C18.191 28.542 18.4118 28.6747 18.6528 28.6775C18.8938 28.6802 19.1176 28.5527 19.238 28.3438L21.044 25.3338H22.8227L21.4287 27.6572C21.3008 27.8615 21.2932 28.119 21.4088 28.3305C21.5243 28.542 21.7451 28.6747 21.9861 28.6775C22.2272 28.6802 22.4509 28.5527 22.5713 28.3438L24.3773 25.3338H26.156L24.762 27.6572C24.6341 27.8615 24.6265 28.119 24.7421 28.3305C24.8577 28.542 25.0784 28.6747 25.3195 28.6775C25.5605 28.6802 25.7843 28.5527 25.9047 28.3438L27.7107 25.3338H29.4893L28.0953 27.6572C27.9675 27.8615 27.9599 28.119 28.0754 28.3305C28.191 28.542 28.4118 28.6747 28.6528 28.6775C28.8938 28.6802 29.1176 28.5527 29.238 28.3438L31.044 25.3338H32.8227L31.4287 27.6572C31.3008 27.8615 31.2932 28.119 31.4088 28.3305C31.5244 28.542 31.7451 28.6747 31.9861 28.6775C32.2272 28.6802 32.4509 28.5527 32.5713 28.3438L34.3773 25.3338H36.156L34.762 27.6572C34.6341 27.8615 34.6265 28.119 34.7421 28.3305C34.8577 28.542 35.0784 28.6747 35.3195 28.6775C35.5605 28.6802 35.7843 28.5527 35.9047 28.3438L37.7107 25.3338H38C39.1046 25.3338 40 24.4384 40 23.3338C40 22.2293 39.1046 21.3338 38 21.3338V21.3338ZM27.354 21.3338C27.446 19.6672 27.9247 15.5272 30.3907 13.0612C31.9975 11.3542 33.006 9.17121 33.264 6.84118C33.3141 6.46038 33.1976 6.07646 32.9443 5.78776C32.6909 5.49906 32.3254 5.33363 31.9413 5.33384H31.4667L34.6667 1.67984L37.8667 5.33384H37.3047C36.6097 5.33255 36.0303 5.86524 35.9733 6.55784C35.7465 9.69612 34.44 12.6591 32.276 14.9432C30.4667 16.7518 30.0967 20.2925 30.0267 21.3338H28.754H27.354ZM15.354 21.3338C15.446 19.6672 15.9247 15.5272 18.3907 13.0612C19.9975 11.3542 21.006 9.17121 21.264 6.84118C21.3141 6.46038 21.1976 6.07646 20.9443 5.78776C20.6909 5.49906 20.3254 5.33363 19.9413 5.33384H19.4667L22.6667 1.67984L25.8667 5.33384H25.3047C24.6097 5.33255 24.0303 5.86524 23.9733 6.55784C23.7465 9.69612 22.44 12.6591 20.276 14.9432C18.4667 16.7518 18.0967 20.2925 18.0267 21.3338H16.754H15.354ZM3.33333 21.3338C3.42533 19.6672 3.90333 15.5272 6.37 13.0612C7.97632 11.3539 8.98468 9.17104 9.24333 6.84118C9.29346 6.46038 9.17693 6.07646 8.9236 5.78776C8.67027 5.49906 8.30475 5.33363 7.92067 5.33384H7.44867L10.6487 1.67984L13.8433 5.33384H13.2807C12.587 5.33428 12.0095 5.86651 11.9527 6.55784C11.7258 9.69612 10.4194 12.6591 8.25533 14.9432C6.44667 16.7518 6.07533 20.2925 6.006 21.3338H4.73333H3.33333ZM38 24.0005H2C1.63181 24.0005 1.33333 23.702 1.33333 23.3338C1.33333 22.9657 1.63181 22.6672 2 22.6672H3.33333H6.006C6.01733 22.6672 6.028 22.6638 6.03933 22.6638H15.3527H18.0253C18.0367 22.6638 18.0473 22.6605 18.0593 22.6605H27.3527H30.0253C30.0367 22.6605 30.0473 22.6572 30.0593 22.6572H38C38.3682 22.6572 38.6667 22.9557 38.6667 23.3238C38.6667 23.692 38.3682 23.9905 38 23.9905V24.0005Z" fill="white"/>
<path d="M15.0833 29.4793C14.8397 29.2843 14.4935 29.2843 14.25 29.4793C14.104 29.5999 10.6666 32.3879 10.6666 35.9999C10.6666 38.2091 12.4575 39.9999 14.6666 39.9999C16.8758 39.9999 18.6666 38.2091 18.6666 35.9999C18.6666 32.3879 15.2293 29.5999 15.0833 29.4793ZM14.6666 38.6666C13.1939 38.6666 12 37.4727 12 35.9999C12 33.7073 13.824 31.6993 14.6666 30.8946C15.5093 31.6993 17.3333 33.7073 17.3333 35.9999C17.3333 37.4727 16.1394 38.6666 14.6666 38.6666Z" fill="white"/>
<path d="M4 39.9999C6.20823 39.9977 7.9978 38.2081 8 35.9999C8 32.3879 4.56267 29.5999 4.41667 29.4793C4.17311 29.2843 3.82689 29.2843 3.58333 29.4793C3.43733 29.5999 0 32.3879 0 35.9999C0.00220492 38.2081 1.79178 39.9977 4 39.9999ZM4 30.8946C4.84267 31.6993 6.66667 33.7073 6.66667 35.9999C6.66667 37.4727 5.47276 38.6666 4 38.6666C2.52724 38.6666 1.33333 37.4727 1.33333 35.9999C1.33333 33.7073 3.15733 31.6993 4 30.8946Z" fill="white"/>
<path d="M36.4169 29.4793C36.1734 29.2843 35.8271 29.2843 35.5836 29.4793C35.4376 29.5999 32.0002 32.3879 32.0002 35.9999C32.0002 38.2091 33.7911 39.9999 36.0002 39.9999C38.2094 39.9999 40.0002 38.2091 40.0002 35.9999C40.0002 32.3879 36.5629 29.5999 36.4169 29.4793ZM36.0002 38.6666C34.5275 38.6666 33.3336 37.4727 33.3336 35.9999C33.3336 33.7073 35.1576 31.6993 36.0002 30.8946C36.8429 31.6993 38.6669 33.7073 38.6669 35.9999C38.6669 37.4727 37.473 38.6666 36.0002 38.6666Z" fill="white"/>
<path d="M25.3335 39.9999C27.5417 39.9977 29.3313 38.2081 29.3335 35.9999C29.3335 32.3879 25.8962 29.5999 25.7502 29.4793C25.5066 29.2843 25.1604 29.2843 24.9168 29.4793C24.7708 29.5999 21.3335 32.3879 21.3335 35.9999C21.3357 38.2081 23.1253 39.9977 25.3335 39.9999ZM25.3335 30.8946C26.1762 31.6993 28.0002 33.7073 28.0002 35.9999C28.0002 37.4727 26.8062 38.6666 25.3335 38.6666C23.8607 38.6666 22.6668 37.4727 22.6668 35.9999C22.6668 33.7073 24.4908 31.6993 25.3335 30.8946Z" fill="white"/>
</g>
<defs>
<clipPath id="clip0">
<rect width="40" height="40" fill="white"/>
</clipPath>
</defs>
</svg>
