<svg width="67" height="67" viewBox="0 0 67 67" fill="none" xmlns="http://www.w3.org/2000/svg">
<path d="M30.2012 46.3651L29.3206 54.2834C29.2771 54.6772 29.4037 55.0726 29.6682 55.3684C29.9327 55.6642 30.3116 55.8333 30.7083 55.8333H36.2917C36.6883 55.8333 37.0673 55.6642 37.3317 55.3684C37.5962 55.0727 37.723 54.6774 37.6793 54.2834L36.7987 46.3651C38.2286 45.325 39.0833 43.6797 39.0833 41.8749C39.0833 38.7956 36.5793 36.2915 33.4999 36.2915C30.4205 36.2915 27.9165 38.7956 27.9165 41.8749C27.9165 43.6797 28.7713 45.325 30.2012 46.3651ZM33.4999 39.0833C35.0388 39.0833 36.2915 40.336 36.2915 41.8749C36.2915 42.9449 35.6835 43.9032 34.7048 44.3776C34.1719 44.6365 33.8598 45.2009 33.9252 45.7884L34.7322 53.0415H32.2677L33.0747 45.7884C33.1402 45.2008 32.8281 44.6365 32.2951 44.3776C31.3164 43.9032 30.7084 42.9449 30.7084 41.8749C30.7083 40.336 31.961 39.0833 33.4999 39.0833Z" fill="black"/>
<path d="M57.2291 25.125H53.0416V19.5416C53.0416 8.76627 44.2755 0 33.5 0C22.7245 0 13.9584 8.76627 13.9584 19.5416V25.125H9.77088C8.99933 25.125 8.375 25.7493 8.375 26.5209V61.4168C8.375 64.496 10.879 67 13.9584 67H53.0418C56.121 67 58.625 64.496 58.625 61.4166V26.5209C58.625 25.7493 58.0007 25.125 57.2291 25.125ZM16.75 19.5416C16.75 10.3052 24.2636 2.79162 33.5 2.79162C42.7364 2.79162 50.25 10.3052 50.25 19.5416V25.125H47.4584V19.5416C47.4584 11.8454 41.1962 5.58325 33.5 5.58325C25.8038 5.58325 19.5416 11.8455 19.5416 19.5416V25.125H16.75V19.5416ZM44.6666 19.5416V25.125H22.3334V19.5416C22.3334 13.3844 27.3428 8.375 33.5 8.375C39.6572 8.375 44.6666 13.3844 44.6666 19.5416ZM55.8334 61.4166C55.8334 62.9555 54.5807 64.2082 53.0418 64.2082H13.9584C12.4195 64.2082 11.1668 62.9555 11.1668 61.4166V27.9166H55.8334V61.4166Z" fill="black"/>
</svg>
