<svg width="53" height="44" viewBox="0 0 53 44" fill="none" xmlns="http://www.w3.org/2000/svg">
<path d="M7.30308 20.3266L5.39241 15.8622C4.98609 14.9418 4.11961 14.3081 3.11935 14.1998C2.11909 14.0914 1.13702 14.525 0.543084 15.3371C-0.050855 16.1491 -0.166434 17.2164 0.239884 18.1368L3.7017 25.7521C4.16873 26.783 4.81844 27.7209 5.61943 28.5205L11.0635 33.9654C10.7569 34.2904 10.5856 34.72 10.5847 35.1667V42.2335C10.5847 43.2092 11.3757 44.0002 12.3514 44.0002H22.0681C23.0438 44.0002 23.8348 43.2092 23.8348 42.2335V35.1667C23.8348 34.191 23.0438 33.4001 22.0681 33.4001V31.7562C22.0952 29.6641 21.4127 27.6246 20.1318 25.9703C19.3809 24.9826 18.3575 24.2362 17.1877 23.8229C15.3272 23.0412 13.6162 21.9432 12.1305 20.5775C10.7515 19.4417 8.79241 19.3399 7.30308 20.3266ZM22.0681 42.2335H12.3514V35.1667H22.0681V42.2335ZM18.7529 27.0736C19.7826 28.4151 20.3283 30.0653 20.3014 31.7562V33.4001H12.9971L6.86847 27.2714C6.21757 26.6215 5.68939 25.8593 5.30938 25.0216L1.84756 17.4063C1.69983 17.0813 1.72732 16.7034 1.92056 16.4032C2.1138 16.103 2.44631 15.9215 2.80334 15.9214C3.2235 15.9211 3.60321 16.1718 3.76795 16.5583L5.74398 21.1667C6.2687 22.3962 7.02504 23.5133 7.97177 24.4571L12.0069 28.4931C12.2287 28.7227 12.5571 28.8148 12.8659 28.734C13.1748 28.6532 13.416 28.412 13.4968 28.1031C13.5776 27.7943 13.4855 27.4658 13.2559 27.2441L9.22081 23.2081C8.81506 22.8033 8.45024 22.3595 8.13165 21.8831C8.97995 21.2303 10.1667 21.2501 10.9928 21.9308C12.6441 23.4462 14.5526 24.6547 16.6285 25.4995C17.4743 25.807 18.2124 26.354 18.7529 27.0736Z" fill="white"/>
<path d="M19.4179 37.8167H18.5346C18.0467 37.8167 17.6512 38.2121 17.6512 38.7C17.6512 39.1878 18.0467 39.5833 18.5346 39.5833H19.4179C19.9058 39.5833 20.3013 39.1878 20.3013 38.7C20.3013 38.2121 19.9058 37.8167 19.4179 37.8167Z" fill="white"/>
<path d="M49.268 25.752L52.7298 18.1367C53.1554 17.2132 53.0501 16.1319 52.4543 15.3079C51.8585 14.4839 50.8646 14.0451 49.8543 14.1599C48.8439 14.2747 47.9739 14.9254 47.5782 15.8621L45.6719 20.3098C44.1774 19.3279 42.2173 19.4354 40.8392 20.5748C39.3535 21.9404 37.6425 23.0385 35.782 23.8201C34.6122 24.2335 33.5888 24.9799 32.8379 25.9675C31.5565 27.6226 30.8739 29.6631 30.9016 31.7561V33.4C29.9259 33.4 29.1349 34.1909 29.1349 35.1667V42.2334C29.1349 43.2091 29.9259 44.0001 30.9016 44.0001H40.6183C41.594 44.0001 42.385 43.2091 42.385 42.2334V35.1667C42.384 34.7199 42.2128 34.2903 41.9062 33.9653L47.3503 28.5204C48.1512 27.7208 48.801 26.7829 49.268 25.752ZM40.6183 42.2334H30.9016V35.1667H40.6183V42.2334ZM39.9726 33.4H32.6683V31.7561C32.6416 30.0655 33.1873 28.4156 34.2167 27.0744C34.756 26.3552 35.4925 25.8081 36.3368 25.4994C38.4131 24.6549 40.3219 23.4463 41.9734 21.9307C42.7985 21.2448 43.9886 21.2217 44.8398 21.875C44.5203 22.355 44.1536 22.8018 43.7453 23.2089L39.7102 27.2449C39.3755 27.5915 39.3803 28.1424 39.721 28.4831C40.0617 28.8239 40.6127 28.8287 40.9593 28.4939L44.9944 24.4579C45.9411 23.5141 46.6974 22.397 47.2222 21.1675L49.1982 16.5582C49.3634 16.1722 49.7429 15.9219 50.1628 15.9222C50.5198 15.9223 50.8524 16.1038 51.0456 16.404C51.2388 16.7042 51.2663 17.0821 51.1186 17.4071L47.6568 25.0224C47.2768 25.8601 46.7486 26.6223 46.0977 27.2722L39.9726 33.4Z" fill="white"/>
<path d="M34.4351 37.8167H33.5518C33.0639 37.8167 32.6685 38.2121 32.6685 38.7C32.6685 39.1878 33.0639 39.5833 33.5518 39.5833H34.4351C34.923 39.5833 35.3185 39.1878 35.3185 38.7C35.3185 38.2121 34.923 37.8167 34.4351 37.8167Z" fill="white"/>
<path d="M35.5097 11.623L32.7074 13.2408L30.9068 12.2013L33.0368 10.9717C33.2279 10.8613 33.3457 10.6575 33.3457 10.4367C33.3457 10.2161 33.2279 10.0121 33.0368 9.90191L30.7973 8.6088L32.7072 7.50602L35.5097 9.12405C35.607 9.18029 35.7132 9.20689 35.818 9.20689C36.0316 9.20689 36.239 9.09618 36.3534 8.89799C36.5241 8.60255 36.4228 8.22475 36.1274 8.05428L33.9426 6.79289L35.4822 5.90385C35.7776 5.73338 35.8789 5.35558 35.7082 5.06014C35.5378 4.7647 35.16 4.66344 34.8645 4.83424L33.3248 5.72296V3.20018C33.3248 2.85908 33.0483 2.58254 32.7072 2.58254C32.3661 2.58254 32.0896 2.85908 32.0896 3.20018V6.43625L30.2344 7.5073V5.04781C30.2344 4.82719 30.1167 4.62323 29.9255 4.51284C29.7344 4.40261 29.499 4.40261 29.3079 4.51284L27.123 5.77423V3.56868L29.9255 1.95065C30.221 1.78017 30.3222 1.40238 30.1516 1.10694C29.981 0.811501 29.6033 0.710403 29.3079 0.880875L27.123 2.14227V0.617638C27.123 0.276535 26.8465 0 26.5054 0C26.1643 0 25.8877 0.276535 25.8877 0.617638V2.14227L23.7028 0.880875C23.4076 0.710243 23.0296 0.811501 22.8591 1.10694C22.6887 1.40238 22.7898 1.78017 23.0852 1.95065L25.8877 3.56868V5.77423L23.7028 4.51284C23.5119 4.40245 23.2763 4.40245 23.0852 4.51284C22.8941 4.62323 22.7765 4.82703 22.7765 5.04781V7.5073L20.9211 6.43609V3.20018C20.9211 2.85908 20.6446 2.58254 20.3035 2.58254C19.9624 2.58254 19.6859 2.85908 19.6859 3.20018V5.72296L18.3654 4.96065C18.0699 4.79002 17.6923 4.89127 17.5217 5.18671C17.3512 5.48215 17.4524 5.85995 17.7477 6.03042L19.0682 6.79273L16.8834 8.05412C16.5879 8.22475 16.4868 8.60239 16.6573 8.89783C16.7717 9.09602 16.9793 9.20689 17.1927 9.20689C17.2975 9.20689 17.4037 9.18013 17.501 9.12389L20.3035 7.50586L22.2136 8.6088L19.9739 9.90175C19.7828 10.0121 19.665 10.2159 19.665 10.4367C19.665 10.6573 19.7828 10.8613 19.9739 10.9715L22.104 12.2013L20.3035 13.2408L17.501 11.6228C17.2055 11.4522 16.8278 11.5534 16.6573 11.8489C16.4868 12.1443 16.5879 12.5221 16.8834 12.6926L19.0682 13.954L17.7477 14.7163C17.4524 14.8869 17.3512 15.2645 17.5217 15.56C17.6361 15.7582 17.8437 15.869 18.0571 15.869C18.1619 15.869 18.2681 15.8423 18.3654 15.786L19.6859 15.0237V17.5467C19.6859 17.8878 19.9624 18.1643 20.3035 18.1643C20.6446 18.1643 20.9211 17.8878 20.9211 17.5467V14.3106L22.7765 13.2394V15.8256C22.7765 16.0462 22.8941 16.2502 23.0852 16.3604C23.2763 16.4708 23.5119 16.4708 23.7028 16.3604L25.8877 15.0992V17.1782L23.0852 18.7962C22.7898 18.9667 22.6887 19.3445 22.8591 19.6399C23.0298 19.9354 23.4076 20.0366 23.7028 19.866L25.8877 18.6046V20.3824C25.8877 20.7235 26.1643 21 26.5054 21C26.8465 21 27.123 20.7235 27.123 20.3824V18.6046L29.3079 19.866C29.4051 19.9222 29.5114 19.9488 29.6161 19.9488C29.8295 19.9488 30.0372 19.8381 30.1516 19.6399C30.3222 19.3445 30.221 18.9667 29.9255 18.7962L27.123 17.1782V15.0992L29.3079 16.3606C29.4034 16.4157 29.5101 16.4434 29.6168 16.4434C29.7233 16.4434 29.83 16.4157 29.9255 16.3606C30.1167 16.2502 30.2344 16.0464 30.2344 15.8258V13.2396L32.0897 14.3108V17.5468C32.0897 17.8879 32.3663 18.1645 32.7074 18.1645C33.0485 18.1645 33.325 17.8879 33.325 17.5468V15.0239L34.8645 15.9128C34.9618 15.969 35.068 15.9958 35.1728 15.9958C35.3864 15.9958 35.5938 15.8849 35.7082 15.6867C35.8789 15.3913 35.7776 15.0135 35.4822 14.843L33.9426 13.9541L36.1275 12.6927C36.423 12.5223 36.5241 12.1445 36.3536 11.849C36.183 11.5534 35.8052 11.4523 35.5097 11.623V11.623ZM23.3393 11.4882L21.5181 10.4367L23.4489 9.32192L25.2701 10.3734L23.3393 11.4882ZM25.8877 13.6728L24.0117 14.7559V12.5264L25.8877 11.4432V13.6728ZM25.8877 9.30366L24.0117 8.22059V6.11758L25.8877 7.20065V9.30366ZM27.123 7.20065L28.9991 6.11758V8.22059L27.123 9.30366V7.20065ZM28.999 14.7559L27.123 13.6728V11.4432L28.9991 12.5263V14.7559H28.999ZM29.6716 11.4882L27.7406 10.3734L29.562 9.32192L31.4928 10.4367L29.6716 11.4882Z" fill="white"/>
</svg>
