<svg width="44" height="43" viewBox="0 0 44 43" fill="none" xmlns="http://www.w3.org/2000/svg">
<path d="M42.6427 19.3559L40.1911 16.9042C39.5251 16.2383 38.6069 15.9202 37.5925 15.9811C37.5612 15.982 37.5299 15.9834 37.4987 15.9866C37.246 16.0075 36.9879 16.0513 36.7263 16.1196C36.294 16.2326 35.8296 16.1068 35.5143 15.7917C35.0229 15.3003 35.0229 14.5008 35.5143 14.0095C36.0063 13.5174 36.0063 12.7195 35.5143 12.2274L26.6034 3.31652C22.1814 -1.10555 14.9862 -1.10547 10.5641 3.31652C10.2037 3.67692 10.0959 4.21893 10.2909 4.68988C10.486 5.16074 10.9455 5.46779 11.4552 5.46779C16.486 5.46779 20.6092 9.42648 20.8741 14.3923L15.947 19.3194L2.55668 30.6906C-0.63141 33.2832 -0.872763 38.0698 2.02869 40.9712C4.93896 43.8816 9.73353 43.625 12.3191 40.4312C12.3257 40.4231 12.3321 40.415 12.3384 40.4068L23.097 26.4267L28.3836 21.1401C28.3837 21.14 28.3839 21.1399 28.3841 21.1397C28.3841 21.1397 28.3841 21.1397 28.3842 21.1396C28.3845 21.1393 28.3848 21.139 28.3851 21.1387C28.3853 21.1386 28.3855 21.1384 28.3856 21.1381C28.877 20.6469 29.6765 20.6469 30.1678 21.1381C30.483 21.4533 30.6087 21.9177 30.4957 22.3502C30.4274 22.6121 30.3836 22.8706 30.3628 23.1236C30.3598 23.1521 30.3587 23.1806 30.3576 23.2093C30.2947 24.2267 30.6129 25.1476 31.2804 25.8151L33.7321 28.2668C34.2241 28.7589 35.0222 28.7589 35.5142 28.2668L42.6428 21.1381C43.1349 20.6459 43.1349 19.848 42.6427 19.3559ZM10.351 38.8564C8.69629 40.8874 5.66084 41.0389 3.81083 39.1889C1.95737 37.3355 2.1127 34.2926 4.15459 32.6395C4.16223 32.6333 4.16988 32.627 4.17735 32.6206L16.7319 21.9592L20.4744 25.7018L10.351 38.8564ZM22.1481 23.8112L18.5838 20.2469L22.1481 16.6826C22.5567 17.0912 25.3285 19.8631 25.7124 20.2469L22.1481 23.8112ZM31.9499 19.3559C30.7877 18.1938 29.0517 17.9483 27.6473 18.6176C27.2051 18.1754 24.0712 15.0415 23.3966 14.3669C23.1658 9.14447 19.5683 4.78178 14.7264 3.40246C18.0144 1.80766 22.0955 2.37295 24.8214 5.09875L32.9937 13.2712C32.3243 14.6762 32.5704 16.4121 33.7321 17.5738C34.0396 17.8813 34.3949 18.1276 34.7782 18.3098L32.6859 20.4021C32.5037 20.0187 32.2575 19.6635 31.9499 19.3559ZM34.6231 25.5934C32.9128 23.8831 32.968 23.98 32.9035 23.7488L38.125 18.5273C38.3562 18.5918 38.2587 18.536 39.9696 20.247L34.6231 25.5934Z" fill="white"/>
</svg>
