<svg width="74" height="70" viewBox="0 0 74 70" fill="none" xmlns="http://www.w3.org/2000/svg">
<g clip-path="url(#clip0)">
<path d="M59.6551 0H14.3448C13.745 0 13.2587 0.459789 13.2587 1.02684V40.579C13.2587 41.146 13.745 41.6058 14.3448 41.6058C14.9446 41.6058 15.431 41.1462 15.431 40.579V2.05354H58.5691V67.9054H56.1181V54.0242C56.1181 53.4572 55.6318 52.9974 55.032 52.9974C54.4322 52.9974 53.9458 53.4572 53.9458 54.0242V67.9054H20.0541V6.42434H53.9458V49.9171C53.9458 50.4842 54.432 50.944 55.032 50.944C55.6318 50.944 56.1181 50.4842 56.1181 49.9171V5.3975C56.1181 4.83045 55.6318 4.37066 55.032 4.37066H18.968C18.3682 4.37066 17.8818 4.83032 17.8818 5.3975V67.9055H15.4308V44.6862C15.4308 44.1192 14.9445 43.6594 14.3447 43.6594C13.7449 43.6594 13.2585 44.119 13.2585 44.6862V68.9322C13.2585 69.4993 13.7449 69.959 14.3447 69.959H59.655C60.2548 69.959 60.7411 69.4993 60.7411 68.9322V1.02684C60.7413 0.459789 60.2549 0 59.6551 0V0Z" fill="black"/>
<path d="M25.0031 22.9006C24.4033 22.9006 23.917 23.3604 23.917 23.9275V33.7507C23.917 34.3177 24.4033 34.7775 25.0031 34.7775H48.9969C49.5967 34.7775 50.0831 34.3177 50.0831 33.7507V10.9673C50.0831 10.4002 49.5967 9.94043 48.9969 9.94043H25.0031C24.4033 9.94043 23.917 10.4001 23.917 10.9673V19.8202C23.917 20.3873 24.4033 20.8471 25.0031 20.8471C25.6029 20.8471 26.0893 20.3873 26.0893 19.8202V11.9941H47.9108V32.7239H26.0892V23.9273C26.0892 23.3603 25.6029 22.9006 25.0031 22.9006Z" fill="black"/>
<path d="M23.917 63.3625C23.917 63.9296 24.4033 64.3893 25.0031 64.3893H48.9969C49.5967 64.3893 50.0831 63.9297 50.0831 63.3625V40.5791C50.0831 40.012 49.5967 39.5522 48.9969 39.5522H25.0031C24.4033 39.5522 23.917 40.0119 23.917 40.5791V63.3625ZM26.0892 41.6059H47.9106V62.3357H26.0892V41.6059Z" fill="black"/>
<path d="M52.9445 37.1649C52.9445 36.0961 52.0247 35.2266 50.8942 35.2266C50.1628 35.2266 49.5214 35.5917 49.1584 36.1381H46.5666C45.9668 36.1381 45.4805 36.5977 45.4805 37.1649C45.4805 37.732 45.9668 38.1918 46.5666 38.1918H49.1584C49.5214 38.7382 50.1627 39.1033 50.8942 39.1033C52.0247 39.1033 52.9445 38.2337 52.9445 37.1649Z" fill="black"/>
</g>
<defs>
<clipPath id="clip0">
<rect width="74" height="69.959" fill="white"/>
</clipPath>
</defs>
</svg>
