<svg width="76" height="76" viewBox="0 0 76 76" fill="none" xmlns="http://www.w3.org/2000/svg">
<path d="M27.9269 32.5083H27.5559V26.9425C27.5559 25.951 26.3533 25.4573 25.6558 26.1554L24.1714 27.6395C23.7368 28.0744 23.7368 28.7791 24.1714 29.2137C24.4848 29.5268 24.9381 29.6139 25.3297 29.4766V32.5083H24.9586C24.3439 32.5083 23.8455 33.0064 23.8455 33.6214C23.8455 34.2364 24.3438 34.7345 24.9586 34.7345H27.9269C28.5417 34.7345 29.0402 34.2364 29.0402 33.6214C29.0402 33.0064 28.5417 32.5083 27.9269 32.5083Z" fill="black"/>
<path d="M33.6508 25.8293C31.8094 25.8293 30.3115 27.3274 30.3115 29.1687V31.395C30.3115 33.2362 31.8094 34.7344 33.6508 34.7344C35.4923 34.7344 36.9903 33.2362 36.9903 31.395V29.1687C36.9903 27.3272 35.4923 25.8293 33.6508 25.8293ZM34.7641 31.3952C34.7641 32.0091 34.2647 32.5083 33.6508 32.5083C33.0371 32.5083 32.5378 32.0091 32.5378 31.3952V29.1689C32.5378 28.555 33.0371 28.0558 33.6508 28.0558C34.2647 28.0558 34.7641 28.555 34.7641 29.1689V31.3952Z" fill="black"/>
<path d="M41.6034 25.8293C39.762 25.8293 38.2642 27.3274 38.2642 29.1687V31.395C38.2642 33.2362 39.762 34.7344 41.6034 34.7344C43.4449 34.7344 44.943 33.2362 44.943 31.395V29.1687C44.943 27.3272 43.4451 25.8293 41.6034 25.8293ZM42.7167 31.3952C42.7167 32.0091 42.2173 32.5083 41.6034 32.5083C40.9898 32.5083 40.4904 32.0091 40.4904 31.3952V29.1689C40.4904 28.555 40.9898 28.0558 41.6034 28.0558C42.2173 28.0558 42.7167 28.555 42.7167 29.1689V31.3952Z" fill="black"/>
<path d="M47.3302 28.0541C47.9448 28.0541 48.4435 27.5558 48.4435 26.941C48.4435 26.326 47.9448 25.8279 47.3302 25.8279C46.7153 25.8279 46.217 26.326 46.217 26.941C46.217 27.5557 46.7153 28.0541 47.3302 28.0541Z" fill="black"/>
<path d="M51.5811 25.9681C51.0434 25.6696 50.366 25.8632 50.0675 26.4007L46.3573 33.0792C46.0588 33.6165 46.2525 34.2943 46.7898 34.5928C47.3243 34.8895 48.0034 34.6998 48.3036 34.1601L52.0136 27.4819C52.312 26.9444 52.1186 26.2668 51.5811 25.9681Z" fill="black"/>
<path d="M51.0405 32.5068C50.4257 32.5068 49.9272 33.0051 49.9272 33.6198C49.9272 34.2348 50.4256 34.7329 51.0405 34.7329C51.6552 34.7329 52.1537 34.2348 52.1537 33.6198C52.1537 33.0051 51.6552 32.5068 51.0405 32.5068Z" fill="black"/>
<path d="M1.11328 41.3401C1.72811 41.3401 2.22656 40.8418 2.22656 40.2268C2.22656 39.6129 2.72591 39.1135 3.33984 39.1135H72.6602C73.2741 39.1135 73.7734 39.6129 73.7734 40.2268C73.7734 40.8418 74.2717 41.3401 74.8867 41.3401C75.5017 41.3401 76 40.8418 76 40.2268C76 38.3853 74.5017 36.887 72.6602 36.887H71.5911C71.4099 36.3952 71.1103 35.9489 70.7109 35.5933L66.9458 32.2425L69.1419 27.7061C69.9829 25.9693 69.1161 23.8898 67.2999 23.2586L62.5391 21.6039L62.8321 16.5721C62.9443 14.6485 61.3506 13.0564 59.4283 13.1683L54.3966 13.4613L52.7418 8.70064C52.1096 6.88094 50.0285 6.01926 48.2943 6.85838L43.7577 9.05466L40.4071 5.28954C39.1243 3.84836 36.8735 3.85118 35.5932 5.28954L32.2426 9.05466L27.7059 6.85838C25.9757 6.0206 23.8921 6.87738 23.2584 8.70034L21.6036 13.4613L16.572 13.1683C14.653 13.0558 13.056 14.6456 13.168 16.5721L13.4611 21.6039L8.70052 23.2586C6.88037 23.891 6.01914 25.9725 6.85826 27.7061L9.05439 32.2425L5.28927 35.5933C4.88983 35.949 4.59028 36.3952 4.40904 36.887H3.33984C1.49818 36.887 0 38.3853 0 40.2268C0 40.8418 0.498453 41.3401 1.11328 41.3401ZM11.1631 33.3464C11.5351 33.0156 11.642 32.4778 11.4251 32.0297L8.86216 26.7361C8.6024 26.1995 8.86706 25.5582 9.43127 25.3618L14.9867 23.4307C15.4569 23.2672 15.7615 22.8114 15.7326 22.3144L15.3907 16.4427C15.3562 15.8494 15.8436 15.3572 16.4424 15.391L22.314 15.7329C22.8122 15.7618 23.2668 15.4572 23.4304 14.9871L25.3616 9.43154C25.5566 8.87015 26.1967 8.60104 26.7357 8.86243L32.0295 11.4254C32.4774 11.6419 33.0153 11.5352 33.3463 11.1634L37.2563 6.76961C37.6528 6.3243 38.3466 6.32341 38.7438 6.76961L42.654 11.1634C42.985 11.5352 43.5229 11.6421 43.9706 11.4254L49.2646 8.86228C49.8024 8.60222 50.4428 8.86822 50.6387 9.43154L52.5699 14.9871C52.7335 15.4572 53.1895 15.762 53.6861 15.7329L59.558 15.391C60.155 15.3572 60.6443 15.8476 60.6096 16.4427L60.2677 22.3144C60.2388 22.8114 60.5432 23.2672 61.0135 23.4307L66.5692 25.3618C67.1319 25.5576 67.3988 26.1981 67.1381 26.7359L64.5752 32.0297C64.3583 32.4779 64.4654 33.0156 64.8372 33.3464L68.8156 36.8871H17.9581C18.5296 26.4184 27.2136 17.9272 38 17.9272H38.0074C47.4198 17.9272 55.6744 24.6085 57.6338 33.8131C57.7422 34.3236 58.2009 34.6947 58.7219 34.6947C58.8005 34.6947 58.8777 34.6873 58.9549 34.6695C59.5546 34.542 59.9391 33.9495 59.8114 33.3499C59.8114 33.3484 59.8114 33.3484 59.8114 33.3467C57.6605 23.25 48.679 15.7005 38.0001 15.7005C26.0965 15.7005 16.306 25.0856 15.7277 36.887H7.18482L11.1631 33.3464Z" fill="black"/>
<path d="M74.8867 48.0198C74.2717 48.0198 73.7734 48.5181 73.7734 49.1331C73.7734 49.747 73.2741 50.2463 72.6602 50.2463H3.33984C2.72591 50.2463 2.22656 49.747 2.22656 49.1331C2.22656 48.5181 1.72811 48.0198 1.11328 48.0198C0.498453 48.0198 0 48.5181 0 49.1331C0 50.9746 1.49818 52.4729 3.33984 52.4729H11.8983L13.4808 54.0554L13.168 59.4282C13.0564 61.3472 14.6442 62.9441 16.572 62.8322L21.6036 62.5392L23.2584 67.2999C23.891 69.12 25.9723 69.9816 27.7059 69.1421L32.2424 66.9459L35.5932 70.711C36.8742 72.1504 39.1266 72.1493 40.4071 70.711L43.7577 66.9459L48.2941 69.1421C50.028 69.9817 52.1094 69.1196 52.7416 67.3002L54.3964 62.5393L59.428 62.8324C61.3614 62.9447 62.9431 61.3419 62.832 59.4284L62.5192 54.0555L64.1018 52.473H72.6602C74.5017 52.473 76 50.9747 76 49.1332C76 48.5181 75.5017 48.0198 74.8867 48.0198ZM60.2674 53.6861L60.6093 59.5577C60.644 60.151 60.1564 60.6439 59.5576 60.6095L53.6858 60.2677C53.1892 60.2384 52.7332 60.5433 52.5696 61.0134L50.6384 66.5691C50.4423 67.1326 49.8015 67.3984 49.2642 67.1381L43.9703 64.5752C43.522 64.3583 42.9847 64.4653 42.6537 64.8372L38.7435 69.2309C38.347 69.6762 37.6533 69.677 37.2562 69.2309L33.346 64.8372C33.015 64.4653 32.4774 64.3586 32.0293 64.5752L26.7355 67.1382C26.1957 67.3993 25.5563 67.1301 25.3614 66.569L23.4303 61.0134C23.2668 60.5433 22.8117 60.2374 22.314 60.2677L16.4424 60.6095C15.8418 60.6425 15.3562 60.1504 15.3907 59.5577L15.7326 53.6861C15.7511 53.3689 15.6331 53.0588 15.4084 52.8342L15.0471 52.4729H51.8929C48.1672 56.0572 43.2246 58.0733 37.9999 58.0733C33.3731 58.0733 29.0224 56.5356 25.4183 53.6292C24.946 53.2457 24.2456 53.3119 23.8523 53.7955C23.4678 54.2734 23.542 54.9754 24.02 55.3615C24.0215 55.3615 24.0215 55.363 24.0215 55.363C27.9135 58.5041 32.7996 60.3 37.9969 60.3L37.9999 60.2926L38.0028 60.3C44.571 60.3 50.7152 57.4242 54.951 52.473H60.9526L60.5913 52.8343C60.3669 53.0588 60.249 53.3689 60.2674 53.6861Z" fill="black"/>
<path d="M6.50981 42.4536H7.32666C7.94164 42.4536 8.43994 41.9554 8.43994 41.3403C8.43994 40.7254 7.94179 40.2273 7.32666 40.2273H6.50981C4.05465 40.2273 2.05713 42.2247 2.05713 44.6797C2.05713 47.135 4.05465 49.1324 6.50981 49.1324C7.69909 49.1324 8.81697 48.6692 9.65802 47.8282C10.4991 46.9871 10.9623 45.8693 10.9623 44.6797C10.9623 44.065 10.4643 43.5667 9.84921 43.5667H7.92071C7.30588 43.5667 6.80743 44.0648 6.80743 44.6797C6.80743 45.2948 7.30573 45.793 7.92071 45.793H8.4389C8.34271 45.9595 8.22382 46.1142 8.08414 46.254C7.66332 46.6745 7.1043 46.9061 6.50981 46.9061C5.28208 46.9061 4.28354 45.9073 4.28354 44.6797C4.28354 43.4524 5.28208 42.4536 6.50981 42.4536Z" fill="black"/>
<path d="M12.963 40.2273C12.3483 40.2273 11.8499 40.7254 11.8499 41.3403V45.3699C11.8499 47.4448 13.5474 49.1324 15.6346 49.1324C17.7214 49.1324 19.4191 47.4448 19.4191 45.3699V41.3403C19.4191 40.7256 18.9208 40.2273 18.3061 40.2273C17.6913 40.2273 17.1929 40.7254 17.1929 41.3403V45.3699C17.1929 46.2169 16.4937 46.9061 15.6344 46.9061C14.7751 46.9061 14.076 46.2169 14.076 45.3699V41.3403C14.0763 40.7254 13.5777 40.2273 12.963 40.2273Z" fill="black"/>
<path d="M23.5774 40.2273C23.1136 40.2273 22.6981 40.515 22.5353 40.9493L20.0307 47.6282C19.8147 48.204 20.1067 48.8456 20.682 49.0613C21.2578 49.2766 21.8992 48.9855 22.1153 48.4099L22.2618 48.0191H24.8932L25.0398 48.4099C25.2567 48.9887 25.9011 49.2762 26.4729 49.0613C27.0482 48.8456 27.3399 48.204 27.1241 47.6282L24.6196 40.9493C24.4566 40.515 24.0413 40.2273 23.5774 40.2273ZM23.0964 45.793L23.5773 44.5105L24.0581 45.793H23.0964Z" fill="black"/>
<path d="M35.062 43.5669C35.062 41.7257 33.5723 40.2275 31.7413 40.2275H29.5704C28.9557 40.2275 28.4573 40.7257 28.4573 41.3405V48.0195C28.4573 48.6345 28.9556 49.1326 29.5704 49.1326C30.1851 49.1326 30.6837 48.6345 30.6837 48.0195V46.9063H31.2773L33.1584 48.8032C33.3759 49.0228 33.6624 49.1326 33.9489 49.1326C34.2321 49.1326 34.5155 49.025 34.7326 48.8099C35.169 48.3771 35.172 47.6721 34.7393 47.2357L33.7419 46.2301C34.5432 45.6197 35.062 44.6532 35.062 43.5669ZM31.7413 44.6798H30.6837V42.4537H31.7413C32.3446 42.4537 32.8356 42.9529 32.8356 43.5668C32.8356 44.1806 32.3447 44.6798 31.7413 44.6798Z" fill="black"/>
<path d="M39.7911 40.2273C39.3273 40.2273 38.9118 40.515 38.749 40.9493L36.2444 47.6282C36.0282 48.204 36.3202 48.8456 36.8957 49.0613C37.4715 49.2766 38.1129 48.9856 38.329 48.4099L38.4755 48.0191H41.107L41.2537 48.4099C41.4211 48.8569 41.8454 49.1324 42.2959 49.1324C42.4257 49.1324 42.5579 49.1096 42.6866 49.0613C43.2619 48.8456 43.5536 48.204 43.3377 47.6282L40.8333 40.9493C40.6703 40.515 40.255 40.2273 39.7911 40.2273ZM39.31 45.793L39.791 44.5105L40.2718 45.793H39.31Z" fill="black"/>
<path d="M49.4208 41.3404V44.6191L46.5337 40.6824C46.249 40.2945 45.7473 40.133 45.2898 40.283C44.8321 40.4326 44.5229 40.8596 44.5229 41.3407V48.0195C44.5229 48.6345 45.0213 49.1327 45.6361 49.1327C46.2508 49.1327 46.7494 48.6345 46.7494 48.0195V44.741L49.6363 48.6777C50.2675 49.5385 51.6474 49.1002 51.6474 48.0192V41.3403C51.6472 40.7256 51.1489 40.2273 50.5341 40.2273C49.9191 40.2274 49.4208 40.7256 49.4208 41.3404Z" fill="black"/>
<path d="M55.918 49.1324C56.5328 49.1324 57.0311 48.6342 57.0311 48.0192V42.4536H58.4413C59.056 42.4536 59.5544 41.9554 59.5544 41.3403C59.5544 40.7254 59.0561 40.2273 58.4413 40.2273H53.395C52.7802 40.2273 52.2817 40.7254 52.2817 41.3403C52.2817 41.9554 52.78 42.4536 53.395 42.4536H54.805V48.0192C54.805 48.6342 55.3033 49.1324 55.918 49.1324Z" fill="black"/>
<path d="M64.7345 42.4536C65.3493 42.4536 65.8476 41.9554 65.8476 41.3403C65.8476 40.7254 65.3495 40.2273 64.7345 40.2273H61.3209C60.7062 40.2273 60.2078 40.7254 60.2078 41.3403V48.0192C60.2078 48.6342 60.7061 49.1324 61.3209 49.1324H64.7345C65.3493 49.1324 65.8476 48.6342 65.8476 48.0192C65.8476 47.4042 65.3493 46.9061 64.7345 46.9061H62.434V45.793H63.844C64.4589 45.793 64.957 45.2948 64.957 44.6797C64.957 44.0648 64.4589 43.5667 63.844 43.5667H62.434V42.4536H64.7345Z" fill="black"/>
<path d="M71.6417 42.4536C72.2566 42.4536 72.7549 41.9554 72.7549 41.3403C72.7549 40.7254 72.2567 40.2273 71.6417 40.2273H68.2281C67.6134 40.2273 67.115 40.7254 67.115 41.3403V48.0192C67.115 48.6342 67.6133 49.1324 68.2281 49.1324H71.6417C72.2566 49.1324 72.7549 48.6342 72.7549 48.0192C72.7549 47.4042 72.2566 46.9061 71.6417 46.9061H69.3413V45.793H70.7513C71.3661 45.793 71.8642 45.2948 71.8642 44.6797C71.8642 44.0648 71.3661 43.5667 70.7513 43.5667H69.3413V42.4536H71.6417Z" fill="black"/>
</svg>
