<svg width="66" height="59" viewBox="0 0 66 59" fill="none" xmlns="http://www.w3.org/2000/svg">
<path d="M66 34.9263C66 33.1061 65.1567 31.48 63.8411 30.4157C65.5174 29.0618 66.2515 26.9663 65.9212 24.9379C65.4728 22.181 62.9092 20.1021 59.958 20.1021C58.5356 20.1021 49.1913 20.1021 47.6787 20.1021L48.0608 18.9552C50.2455 12.4026 48.2166 5.40097 43.408 1.30472C40.7223 -1.01224 36.1402 -0.239706 34.7326 3.59358C34.6345 3.86067 34.6277 4.15277 34.713 4.42438C35.7839 7.83034 35.7989 10.1205 34.7654 12.329C33.6936 14.6196 31.3879 17.0246 27.0556 20.3709C26.0157 21.1739 25.1067 21.6648 24.2277 22.1396C22.843 22.8874 21.5282 23.5974 20.1691 25.2582H15.4688V23.9691C15.4688 23.2572 14.8916 22.6801 14.1797 22.6801H1.28906C0.577113 22.6801 0 23.2572 0 23.9691V57.4848C0 58.1967 0.577113 58.7738 1.28906 58.7738H14.1797C14.8916 58.7738 15.4688 58.1967 15.4688 57.4848V53.6176H22.699C26.4467 56.9466 31.2568 58.7738 36.3026 58.7738C39.2779 58.7738 49.1922 58.7738 52.4648 58.7738C55.6713 58.7738 58.2656 56.1799 58.2656 52.9731C58.2656 51.7814 57.904 50.6727 57.2854 49.7504H57.6211C60.8275 49.7504 63.4219 47.1564 63.4219 43.9496C63.4219 42.6033 62.9596 41.3638 62.1872 40.3783C64.39 39.5769 66 37.4561 66 34.9263ZM12.8906 56.1958H2.57812V25.2583H12.8906V56.1958ZM60.1992 38.149C58.9455 38.149 49.1464 38.149 47.8242 38.149C47.1124 38.149 46.5352 38.7261 46.5352 39.438C46.5352 40.15 47.1124 40.7271 47.8242 40.7271H57.6211C59.3981 40.7271 60.8438 42.1728 60.8438 43.9497C60.8438 45.7311 59.403 47.1724 57.6211 47.1724C54.0054 47.1724 50.7767 47.1724 47.8242 47.1724C47.1124 47.1724 46.5352 47.7495 46.5352 48.4615C46.5352 49.1734 47.1124 49.7505 47.8242 49.7505H52.4648C54.2418 49.7505 55.6875 51.1962 55.6875 52.9732C55.6875 54.7545 54.2467 56.1958 52.4648 56.1958C49.0912 56.1958 39.0679 56.1958 36.3026 56.1958C31.7398 56.1958 27.3984 54.4878 24.0779 51.3866C23.8391 51.1636 23.5246 51.0396 23.198 51.0396H15.4688V27.8365H20.8003C21.2101 27.8365 21.5954 27.6417 21.8384 27.3117C23.0011 25.7323 24.0295 25.1769 25.4531 24.4082C26.3777 23.9088 27.4257 23.3428 28.6319 22.4114C37.4576 15.5942 39.4771 11.4175 37.3149 4.11694C38.1697 2.47351 40.3016 2.0302 41.8158 3.33783C45.9244 6.92941 47.4157 12.7396 45.6152 18.1403L44.9615 20.1023H43.3125C42.6007 20.1023 42.0234 20.6795 42.0234 21.3914C42.0234 22.1034 42.6007 22.6805 43.3125 22.6805C45.2921 22.6805 57.9245 22.6805 59.9582 22.6805C61.6592 22.6805 63.1289 23.829 63.3768 25.3523C63.7127 27.4147 62.1278 29.1258 60.1993 29.1258C58.8787 29.1258 49.0821 29.1258 47.8243 29.1258C47.1125 29.1258 46.5353 29.7029 46.5353 30.4148C46.5353 31.1268 47.1125 31.7039 47.8243 31.7039C49.0781 31.7039 58.8772 31.7039 60.1993 31.7039C61.9763 31.7039 63.422 33.1496 63.422 34.9266C63.4219 36.7077 61.9811 38.149 60.1992 38.149Z" fill="black"/>
</svg>
