<svg width="74" height="74" viewBox="0 0 74 74" fill="none" xmlns="http://www.w3.org/2000/svg">
<g clip-path="url(#clip0)">
<path d="M59.6551 0H14.3448C13.745 0 13.2587 0.486348 13.2587 1.08615V42.9229C13.2587 43.5227 13.745 44.009 14.3448 44.009C14.9446 44.009 15.431 43.5228 15.431 42.9229V2.17216H58.5691V71.8277H56.1181V57.1448C56.1181 56.545 55.6318 56.0586 55.032 56.0586C54.4322 56.0586 53.9458 56.545 53.9458 57.1448V71.8277H20.0541V6.79543H53.9458V52.8004C53.9458 53.4002 54.432 53.8866 55.032 53.8866C55.6318 53.8866 56.1181 53.4002 56.1181 52.8004V5.70927C56.1181 5.10947 55.6318 4.62312 55.032 4.62312H18.968C18.3682 4.62312 17.8818 5.10932 17.8818 5.70927V71.8278H15.4308V47.2674C15.4308 46.6675 14.9445 46.1812 14.3447 46.1812C13.7449 46.1812 13.2585 46.6674 13.2585 47.2674V72.9138C13.2585 73.5136 13.7449 74 14.3447 74H59.655C60.2548 74 60.7411 73.5136 60.7411 72.9138V1.08615C60.7413 0.486348 60.2549 0 59.6551 0V0Z" fill="black"/>
<path d="M52.9445 39.3117C52.9445 38.1811 52.0247 37.2614 50.8942 37.2614C50.1628 37.2614 49.5214 37.6475 49.1584 38.2255H46.5666C45.9668 38.2255 45.4805 38.7117 45.4805 39.3117C45.4805 39.9115 45.9668 40.3978 46.5666 40.3978H49.1584C49.5214 40.9758 50.1627 41.362 50.8942 41.362C52.0247 41.362 52.9445 40.4422 52.9445 39.3117Z" fill="black"/>
</g>
<path d="M36.5 44.1041C36.3845 44.1041 36.269 44.0813 36.1605 44.0339C35.744 43.8599 26 39.6315 26 30.992V23.6507C26 23.2747 26.2398 22.9392 26.595 22.818L36.22 19.5558C36.402 19.4943 36.598 19.4943 36.78 19.5558L46.405 22.818C46.7603 22.9374 47 23.273 47 23.6507V30.992C47 39.6315 37.256 43.8599 36.8395 44.0356C36.731 44.0813 36.6155 44.1041 36.5 44.1041ZM27.75 24.2813V30.992C27.75 37.6412 34.8462 41.4585 36.5 42.2596C38.152 41.4568 45.25 37.6254 45.25 30.992V24.2813L36.5 21.316L27.75 24.2813Z" fill="black"/>
<path d="M35.6254 35.3206C35.6096 35.3206 35.5921 35.3206 35.5764 35.3188C35.3279 35.3047 35.0969 35.1853 34.9411 34.9903L31.4411 30.5984C31.1401 30.219 31.2014 29.6674 31.5776 29.3635C31.9556 29.0613 32.5051 29.1228 32.8079 29.5005L35.6971 33.1264L41.1308 27.6717C41.4721 27.3292 42.0268 27.3292 42.3681 27.6717C42.7093 28.0143 42.7093 28.5712 42.3681 28.9137L36.2431 35.0623C36.0804 35.2292 35.8564 35.3206 35.6254 35.3206Z" fill="black"/>
<defs>
<clipPath id="clip0">
<rect width="74" height="74" fill="white"/>
</clipPath>
</defs>
</svg>
