<svg width="17" height="19" viewBox="0 0 17 19" fill="none" xmlns="http://www.w3.org/2000/svg">
<path d="M8.15 18.5807C7.80364 18.5807 7.51383 18.2979 7.51383 17.9516L7.47142 13.4418L7.429 9.4127C7.37952 7.67383 7.61986 6.69836 8.2631 6.06219C9.04065 5.28464 10.2776 5.21396 11.5076 5.2493C11.861 5.25637 12.1367 5.55325 12.1226 5.90668C12.1084 6.26011 11.8186 6.53578 11.4652 6.52165C10.1928 6.4863 9.50717 6.61354 9.16081 6.9599C8.80738 7.31333 8.66601 8.0626 8.70135 9.38443C8.70135 9.3915 8.70135 9.3915 8.70135 9.39857L8.70842 10.1054L11.1966 10.0559C11.2036 10.0559 11.2036 10.0559 11.2107 10.0559C11.5571 10.0559 11.8398 10.3316 11.8469 10.678C11.8469 10.6851 11.8469 10.6851 11.8469 10.6921C11.8469 11.0385 11.5712 11.3212 11.2248 11.3283L8.72963 11.3778L8.74376 13.4347L8.78618 17.9445C8.79324 18.2909 8.5105 18.5807 8.15 18.5807C8.15707 18.5807 8.15 18.5807 8.15 18.5807ZM5.52048 11.4273C5.18119 11.4273 4.89845 11.1586 4.88431 10.8123C4.87017 10.4589 5.14585 10.169 5.49928 10.1549L6.12131 10.1337C6.46768 10.1196 6.76456 10.3952 6.77869 10.7487C6.79283 11.1021 6.51715 11.3919 6.16373 11.406L5.54169 11.4273C5.53462 11.4273 5.52755 11.4273 5.52048 11.4273Z" fill="black"/>
<path d="M12.7093 18.623H4.43908C4.08565 18.623 3.80291 18.3403 3.80291 17.9868C3.80291 17.6334 4.08565 17.3507 4.43908 17.3507H12.7093C14.3775 17.3507 15.7347 16.0076 15.7347 14.3536V5.13613C15.7347 3.48208 14.3775 2.13905 12.7093 2.13905H4.26943C2.61538 2.13905 1.27235 3.48208 1.27235 5.13613V14.2476C1.27235 14.601 0.989604 14.8837 0.636174 14.8837C0.282744 14.8837 0 14.601 0 14.2476V5.13613C0 2.78229 1.91559 0.866699 4.26943 0.866699H12.7023C15.0703 0.866699 17 2.78229 17 5.13613V14.3607C17.007 16.7074 15.0773 18.623 12.7093 18.623Z" fill="black"/>
</svg>
