<svg width="41" height="79" viewBox="0 0 41 79" fill="none" xmlns="http://www.w3.org/2000/svg">
<path d="M39.9264 0H1.0741C0.480886 0 0 0.628706 0 1.40427V77.5957C0 78.3716 0.480649 79 1.07386 79H39.9261C40.5193 79 41 78.3713 41 77.5957V1.40427C41.0002 0.628706 40.5193 0 39.9264 0ZM2.14796 3.4183L19.4261 11.7442V67.2554L2.14796 75.5814V3.4183ZM38.8523 76.1918H7.09337L20.8716 69.5523C21.2939 69.349 21.5741 68.8227 21.5741 68.235V10.7653C21.5741 10.1773 21.2936 9.65134 20.8716 9.44767L7.09361 2.80822H38.8523V76.1918Z" fill="#C4C4C4"/>
<path d="M15 45L18 43V45L15 47V45Z" fill="#C4C4C4"/>
<ellipse cx="11" cy="21.5" rx="1" ry="1.5" fill="#C4C4C4"/>
<path d="M17 32L18 31V36L17 37V32Z" fill="#C4C4C4"/>
</svg>
