<svg width="16" height="17" viewBox="0 0 16 17" fill="none" xmlns="http://www.w3.org/2000/svg">
<path d="M11.9617 0H4.01829C1.80291 0 0 1.80291 0 4.01829V12.5937C0 12.9264 0.266112 13.1925 0.598752 13.1925C0.931392 13.1925 1.1975 12.9264 1.1975 12.5937V4.01829C1.1975 2.46154 2.46154 1.1975 4.01829 1.1975H11.9551C13.5251 1.1975 14.8025 2.46154 14.8025 4.01829V12.7002C14.8025 14.2569 13.5251 15.521 11.9551 15.521H4.1713C3.83866 15.521 3.57255 15.7871 3.57255 16.1197C3.57255 16.4524 3.83866 16.7185 4.1713 16.7185H11.9551C14.1838 16.7185 16 14.9156 16 12.7002V4.01829C16.0066 1.80291 14.1904 0 11.9617 0Z" fill="black"/>
<path d="M8.00327 3.92504C5.5617 3.92504 3.57251 5.91423 3.57251 8.35581C3.57251 10.7974 5.5617 12.7866 8.00327 12.7866C9.17417 12.7866 10.2852 12.3209 11.1234 11.4826C11.9617 10.6444 12.4274 9.53335 12.4274 8.36246C12.434 5.91423 10.4449 3.92504 8.00327 3.92504ZM8.00327 11.5891C6.22032 11.5891 4.77001 10.1388 4.77001 8.35581C4.77001 6.57286 6.22032 5.12255 8.00327 5.12255C9.78622 5.12255 11.2365 6.57286 11.2365 8.35581C11.2365 10.1055 9.75296 11.5891 8.00327 11.5891ZM13.0727 3.43274C13.0727 3.04687 12.76 2.72754 12.3675 2.72754C11.975 2.72754 11.6623 3.04022 11.6623 3.43274C11.6623 3.82525 11.975 4.13793 12.3675 4.13793C12.76 4.13793 13.0727 3.8186 13.0727 3.43274Z" fill="black"/>
</svg>
