<svg viewBox="0 0 31 32" fill="none" xmlns="http://www.w3.org/2000/svg">
<path d="M24.506 19.2261C23.8706 18.5645 23.1042 18.2108 22.2919 18.2108C21.4862 18.2108 20.7132 18.558 20.0517 19.2196L17.9817 21.283C17.8114 21.1913 17.6411 21.1061 17.4773 21.021C17.2415 20.903 17.0188 20.7917 16.8288 20.6738C14.8899 19.4423 13.1278 17.8374 11.4378 15.761C10.619 14.726 10.0688 13.8548 9.6692 12.9705C10.2063 12.4792 10.7042 11.9682 11.1889 11.477C11.3723 11.2935 11.5557 11.1036 11.7391 10.9202C13.1147 9.54458 13.1147 7.76286 11.7391 6.38727L9.95087 4.599C9.74781 4.39594 9.53819 4.18632 9.34168 3.97671C8.94866 3.57058 8.53598 3.15135 8.1102 2.75832C7.47481 2.12948 6.71495 1.79541 5.9158 1.79541C5.11665 1.79541 4.3437 2.12948 3.68865 2.75832C3.6821 2.76488 3.6821 2.76488 3.67555 2.77143L1.4484 5.01823C0.609943 5.85668 0.131761 6.87855 0.0269541 8.06418C-0.130257 9.97691 0.433081 11.7586 0.865411 12.9246C1.92658 15.7872 3.51179 18.4401 5.8765 21.283C8.74559 24.7089 12.1977 27.4142 16.141 29.3204C17.6476 30.0344 19.6586 30.8794 21.9054 31.0235C22.043 31.03 22.1871 31.0366 22.3181 31.0366C23.8313 31.0366 25.102 30.4929 26.0977 29.4121C26.1043 29.399 26.1174 29.3924 26.1239 29.3793C26.4645 28.9666 26.8576 28.5933 27.2702 28.1937C27.5519 27.9251 27.8401 27.6435 28.1218 27.3487C28.7703 26.674 29.1109 25.8879 29.1109 25.0822C29.1109 24.27 28.7637 23.4905 28.1021 22.8354L24.506 19.2261ZM26.851 26.1238C26.8445 26.1238 26.8445 26.1303 26.851 26.1238C26.5955 26.3989 26.3335 26.6478 26.0519 26.9229C25.6261 27.329 25.1938 27.7548 24.7876 28.233C24.126 28.9404 23.3465 29.2745 22.3247 29.2745C22.2264 29.2745 22.1216 29.2745 22.0233 29.268C20.0779 29.1435 18.2699 28.3837 16.914 27.7352C13.2064 25.9403 9.95087 23.3922 7.24554 20.1628C5.01184 17.4706 3.51834 14.9814 2.52922 12.3089C1.92003 10.6778 1.69732 9.40702 1.79557 8.20829C1.86108 7.44189 2.15585 6.8065 2.69953 6.26281L4.93323 4.02911C5.25421 3.72779 5.59483 3.56403 5.9289 3.56403C6.34158 3.56403 6.67565 3.81295 6.88527 4.02256C6.89182 4.02911 6.89837 4.03566 6.90492 4.04221C7.30449 4.41559 7.68442 4.80206 8.084 5.21474C8.28706 5.42436 8.49668 5.63397 8.70629 5.85013L10.4946 7.6384C11.1889 8.33275 11.1889 8.97469 10.4946 9.66904C10.3046 9.859 10.1212 10.049 9.93122 10.2324C9.38098 10.7957 8.85695 11.3198 8.28706 11.8307C8.27396 11.8438 8.26086 11.8503 8.25431 11.8634C7.69097 12.4268 7.79578 12.977 7.91369 13.3504C7.92024 13.37 7.92679 13.3897 7.93334 13.4093C8.39842 14.536 9.05346 15.5972 10.0491 16.8614L10.0557 16.868C11.8636 19.0951 13.7698 20.831 15.8725 22.1607C16.141 22.331 16.4162 22.4686 16.6782 22.5996C16.914 22.7175 17.1367 22.8289 17.3267 22.9468C17.3529 22.9599 17.3791 22.9795 17.4053 22.9926C17.628 23.104 17.8376 23.1564 18.0538 23.1564C18.5975 23.1564 18.9381 22.8158 19.0494 22.7044L21.2897 20.4642C21.5124 20.2415 21.8661 19.9729 22.2788 19.9729C22.6849 19.9729 23.019 20.2284 23.2221 20.4511C23.2286 20.4576 23.2286 20.4576 23.2352 20.4642L26.8445 24.0735C27.5192 24.7416 27.5192 25.4294 26.851 26.1238Z" fill="black"/>
<path d="M16.7501 7.38267C18.4663 7.67089 20.0253 8.48315 21.2699 9.72773C22.5145 10.9723 23.3202 12.5313 23.615 14.2475C23.687 14.6799 24.0604 14.9812 24.4862 14.9812C24.5386 14.9812 24.5844 14.9746 24.6368 14.9681C25.1216 14.8895 25.4426 14.4309 25.3639 13.9462C25.0102 11.8697 24.0277 9.97665 22.5276 8.4766C21.0276 6.97655 19.1345 5.99398 17.058 5.64026C16.5733 5.56165 16.1213 5.88262 16.0361 6.36081C15.951 6.83899 16.2654 7.30407 16.7501 7.38267Z" fill="black"/>
<path d="M30.9774 13.6908C30.3944 10.2715 28.783 7.16001 26.307 4.68395C23.8309 2.20788 20.7194 0.596471 17.3001 0.0134818C16.8219 -0.071674 16.3699 0.255848 16.2848 0.73403C16.2062 1.21876 16.5271 1.67074 17.0119 1.7559C20.0644 2.27338 22.8483 3.72103 25.0624 5.92853C27.2764 8.14258 28.7175 10.9265 29.235 13.979C29.3071 14.4114 29.6804 14.7127 30.1062 14.7127C30.1586 14.7127 30.2045 14.7061 30.2569 14.6996C30.7351 14.6275 31.0626 14.169 30.9774 13.6908Z" fill="black"/>
</svg>
