<svg width="124" height="82" viewBox="0 0 124 82" fill="none" xmlns="http://www.w3.org/2000/svg">
<rect width="124" height="82" rx="20" fill="white"/>
<path d="M52.8262 54.8768C52.0755 54.8768 51.3489 54.4893 50.9372 53.787C50.3317 52.7456 50.695 51.4135 51.7364 50.8081L70.7723 39.7885L55.0059 30.4159V42.38C55.0059 43.5909 54.0372 44.5596 52.8262 44.5596C51.6153 44.5596 50.6465 43.5909 50.6465 42.38V26.5893C50.6465 25.8143 51.0583 25.0878 51.7606 24.7003C52.463 24.3128 53.2864 24.3128 53.9645 24.7245L76.2215 37.9721C76.8755 38.3596 77.2872 39.0862 77.2872 39.8612C77.2872 40.6362 76.8755 41.3385 76.1973 41.726L53.9403 54.6104C53.577 54.78 53.2137 54.8768 52.8262 54.8768Z" fill="#F6CC48"/>
<path d="M52.8262 54.8768C52.0755 54.8768 51.3489 54.4893 50.9372 53.787C50.3317 52.7456 50.695 51.4135 51.7364 50.8081L70.7723 39.7885L55.0059 30.4159V42.38C55.0059 43.5909 54.0372 44.5596 52.8262 44.5596C51.6153 44.5596 50.6465 43.5909 50.6465 42.38V26.5893C50.6465 25.8143 51.0583 25.0878 51.7606 24.7003C52.463 24.3128 53.2864 24.3128 53.9645 24.7245L76.2215 37.9721C76.8755 38.3596 77.2872 39.0862 77.2872 39.8612C77.2872 40.6362 76.8755 41.3385 76.1973 41.726L53.9403 54.6104C53.577 54.78 53.2137 54.8768 52.8262 54.8768Z" fill="url(#paint0_linear)"/>
<path d="M93.0055 72H29.2617C28.0508 72 27.082 71.0312 27.082 69.8203C27.082 68.6094 28.0508 67.6406 29.2617 67.6406H93.0055C97.3648 67.6406 100.901 64.0563 100.901 59.6727V22.3273C100.901 17.9195 97.3648 14.3594 93.0055 14.3594H30.3273C26.0164 14.3594 22.3594 18.0164 22.3594 22.3273V58.7039C22.3594 59.9148 21.3906 60.8836 20.1797 60.8836C18.9688 60.8836 18 59.9148 18 58.7039V22.3273C18 15.5219 23.5219 10 30.3273 10H93.0055C99.7625 10 105.26 15.5219 105.26 22.3273V59.6727C105.236 66.4781 99.7625 72 93.0055 72Z" fill="#F6CC48"/>
<path d="M93.0055 72H29.2617C28.0508 72 27.082 71.0312 27.082 69.8203C27.082 68.6094 28.0508 67.6406 29.2617 67.6406H93.0055C97.3648 67.6406 100.901 64.0563 100.901 59.6727V22.3273C100.901 17.9195 97.3648 14.3594 93.0055 14.3594H30.3273C26.0164 14.3594 22.3594 18.0164 22.3594 22.3273V58.7039C22.3594 59.9148 21.3906 60.8836 20.1797 60.8836C18.9688 60.8836 18 59.9148 18 58.7039V22.3273C18 15.5219 23.5219 10 30.3273 10H93.0055C99.7625 10 105.26 15.5219 105.26 22.3273V59.6727C105.236 66.4781 99.7625 72 93.0055 72Z" fill="url(#paint1_linear)"/>
<defs>
<linearGradient id="paint0_linear" x1="63.9655" y1="24.4126" x2="63.9655" y2="54.8768" gradientUnits="userSpaceOnUse">
<stop stop-color="#FF7D7D"/>
<stop offset="0.0001" stop-color="#FF0C0C"/>
</linearGradient>
<linearGradient id="paint1_linear" x1="61.6301" y1="10" x2="61.6301" y2="72" gradientUnits="userSpaceOnUse">
<stop stop-color="#FF7D7D"/>
<stop offset="0.0001" stop-color="#FF0C0C"/>
</linearGradient>
</defs>
</svg>
