<svg width="45" height="48" viewBox="0 0 45 48" fill="none" xmlns="http://www.w3.org/2000/svg">
<g clip-path="url(#clip0)">
<path d="M20.5298 24.8862H17.8755C17.4466 24.8862 17.0991 25.257 17.0991 25.7143C17.0991 26.1716 17.4466 26.5424 17.8755 26.5424H20.5298C20.9587 26.5424 21.3061 26.1716 21.3061 25.7143C21.3061 25.257 20.9586 24.8862 20.5298 24.8862Z" fill="black"/>
<path d="M36.3727 2.40424H24.9203V0.828116C24.9203 0.570866 24.8082 0.328147 24.6169 0.171491C24.4255 0.0147409 24.1769 -0.0384154 23.9439 0.0280534L8.42713 4.44171C8.08726 4.53837 7.85083 4.86668 7.85083 5.24187V7.91665C7.85083 8.37396 8.19835 8.74474 8.62717 8.74474C9.05599 8.74474 9.40351 8.37396 9.40351 7.91665V5.87815L23.3676 1.90605V46.1618L9.40351 43.1828V10.7078C9.40351 10.2505 9.05599 9.87968 8.62717 9.87968C8.19835 9.87968 7.85083 10.2505 7.85083 10.7078V43.8617C7.85083 44.2565 8.11195 44.5963 8.47494 44.6737L23.9917 47.984C24.0422 47.9948 24.0931 48.0001 24.1439 48.0001C24.3219 48.0001 24.4961 47.9349 24.6361 47.8124C24.8159 47.6551 24.9202 47.4201 24.9202 47.172V45.5961H32.075C32.5039 45.5961 32.8513 45.2253 32.8513 44.768C32.8513 44.3107 32.5038 43.9399 32.075 43.9399H24.9202V41.5771H32.6046C33.0335 41.5771 33.381 41.2063 33.381 40.749V7.2514C33.381 6.79408 33.0334 6.4233 32.6046 6.4233H24.9202V4.06043H35.5961V43.9395H34.4885C34.0596 43.9395 33.7122 44.3103 33.7122 44.7676C33.7122 45.2249 34.0597 45.5957 34.4885 45.5957H36.3725C36.8014 45.5957 37.1488 45.2249 37.1488 44.7676V3.23233C37.149 2.77502 36.8014 2.40424 36.3727 2.40424ZM31.8284 8.07949V39.9206H24.9204V8.07949H31.8284Z" fill="black"/>
</g>
<defs>
<clipPath id="clip0">
<rect width="45" height="48" fill="white"/>
</clipPath>
</defs>
</svg>
