<svg width="41" height="41" viewBox="0 0 41 41" fill="none" xmlns="http://www.w3.org/2000/svg">
<path d="M3.5 38L5 28.5L12.5 35L3.5 38Z" stroke="black" stroke-width="1.5"/>
<path d="M35.5 27L10 1.5L1.5 10L31.5 39.5L39.5 31L35.5 27ZM35.5 27L31.5 31" stroke="black" stroke-width="2"/>
<path d="M32 24L28 28" stroke="black" stroke-width="2"/>
<path d="M18 9L14 13" stroke="black" stroke-width="2"/>
<path d="M14.5 5.5L10.5 9.5" stroke="black" stroke-width="2"/>
<path d="M38.5 8.5L13.8167 33.658C13.0767 34.4122 11.8777 34.4607 11.0792 33.7687L6.59279 29.8804C5.72696 29.13 5.66727 27.8071 6.46201 26.9818L31 1.5L38.5 8.5Z" fill="white" stroke="black" stroke-width="2"/>
</svg>
