<svg width="46" height="46" viewBox="0 0 46 46" fill="none" xmlns="http://www.w3.org/2000/svg">
<path d="M42.7798 20.7866L41.5886 16.0217C41.9143 15.9525 42.1586 15.6636 42.1586 15.3174V14.5492C42.1586 12.8811 40.8016 11.5241 39.1336 11.5241H33.7078V9.93946C33.7078 9.11865 33.04 8.45093 32.2192 8.45093H4.56155C3.74073 8.45093 3.07302 9.11865 3.07302 9.93946V23C3.07302 23.3978 3.39546 23.7203 3.79329 23.7203C4.19103 23.7203 4.51357 23.3979 4.51357 23V9.93946C4.51357 9.91296 4.53504 9.89148 4.56155 9.89148H32.2191C32.2456 9.89148 32.2671 9.91296 32.2671 9.93946V23.0002C32.2671 23.398 32.5896 23.7205 32.9874 23.7205C33.3851 23.7205 33.7077 23.3981 33.7077 23.0002V22.1837H42.2041C42.2048 22.1837 42.2054 22.1839 42.206 22.1839C42.2067 22.1839 42.2073 22.1838 42.208 22.1838C43.2535 22.1845 44.1412 22.8708 44.4462 23.8164H42.2065C41.8088 23.8164 41.4863 24.1388 41.4863 24.5366V26.0732C41.4863 27.3176 42.4986 28.3299 43.743 28.3299H44.5594V31.499H42.676C42.0574 29.7126 40.3592 28.4259 38.3652 28.4259C36.3711 28.4259 34.6729 29.7126 34.0543 31.499H33.7075V26.0731C33.7075 25.6753 33.385 25.3528 32.9872 25.3528C32.5895 25.3528 32.2669 25.6752 32.2669 26.0731V31.4988H17.3234C16.7047 29.7125 15.0066 28.4257 13.0125 28.4257C11.0184 28.4257 9.32021 29.7125 8.70164 31.4988H4.56155C4.53504 31.4988 4.51357 31.4773 4.51357 31.4508V29.8663H7.63465C8.03239 29.8663 8.35493 29.5438 8.35493 29.146C8.35493 28.7482 8.03248 28.4257 7.63465 28.4257H0.720277C0.322539 28.4257 0 28.7482 0 29.146C0 29.5438 0.322449 29.8663 0.720277 29.8663H3.07311V31.4508C3.07311 32.2717 3.74082 32.9394 4.56164 32.9394H8.45223C8.45205 32.9554 8.45097 32.9713 8.45097 32.9873C8.45097 35.5026 10.4973 37.5489 13.0125 37.5489C15.5277 37.5489 17.5741 35.5026 17.5741 32.9873C17.5741 32.9712 17.573 32.9554 17.5728 32.9394H33.8049C33.8047 32.9554 33.8036 32.9713 33.8036 32.9873C33.8036 35.5026 35.85 37.5489 38.3652 37.5489C40.8803 37.5489 42.9267 35.5026 42.9267 32.9873C42.9267 32.9712 42.9256 32.9554 42.9255 32.9394H45.2796C45.6774 32.9394 45.9999 32.6169 45.9999 32.2191V24.5365C46 22.6397 44.6005 21.0637 42.7798 20.7866ZM33.7078 12.9646H39.1336C40.0073 12.9646 40.7182 13.6754 40.7182 14.5492V14.5971H33.7078V12.9646ZM33.7078 20.7433V16.0376H40.1078L41.2842 20.7433H33.7078ZM13.0125 36.1086C11.2916 36.1086 9.89144 34.7086 9.89144 32.9875C9.89144 31.2665 11.2916 29.8664 13.0125 29.8664C14.7335 29.8664 16.1336 31.2665 16.1336 32.9875C16.1336 34.7086 14.7335 36.1086 13.0125 36.1086ZM38.3653 36.1086C36.6444 36.1086 35.2443 34.7086 35.2443 32.9875C35.2443 31.2665 36.6444 29.8664 38.3653 29.8664C40.0863 29.8664 41.4864 31.2665 41.4864 32.9875C41.4864 34.7086 40.0863 36.1086 38.3653 36.1086ZM44.5595 26.8894H43.7432C43.2931 26.8894 42.9269 26.5232 42.9269 26.0731V25.2567H44.5594V26.8894H44.5595Z" fill="black"/>
<path d="M13.0125 31.499C12.1916 31.499 11.5239 32.1667 11.5239 32.9876C11.5239 33.8084 12.1916 34.4761 13.0125 34.4761C13.8333 34.4761 14.501 33.8084 14.501 32.9876C14.501 32.1667 13.8333 31.499 13.0125 31.499Z" fill="black"/>
<path d="M38.3652 31.499C37.5444 31.499 36.8767 32.1667 36.8767 32.9876C36.8767 33.8084 37.5444 34.4761 38.3652 34.4761C39.1861 34.4761 39.8538 33.8084 39.8538 32.9876C39.8538 32.1667 39.1861 31.499 38.3652 31.499Z" fill="black"/>
<path d="M29.9145 28.426H19.1588C18.761 28.426 18.4385 28.7485 18.4385 29.1463C18.4385 29.5441 18.7609 29.8666 19.1588 29.8666H29.9145C30.3122 29.8666 30.6348 29.5441 30.6348 29.1463C30.6348 28.7485 30.3123 28.426 29.9145 28.426Z" fill="black"/>
<path d="M11.4761 25.3528H2.2569C1.85916 25.3528 1.53662 25.6752 1.53662 26.0731C1.53662 26.4709 1.85907 26.7933 2.2569 26.7933H11.4761C11.8739 26.7933 12.1964 26.4709 12.1964 26.0731C12.1964 25.6752 11.8739 25.3528 11.4761 25.3528Z" fill="black"/>
<path d="M25.0458 15.5761C24.7646 15.2949 24.3085 15.2949 24.0273 15.5762L17.6221 21.9813L14.2901 18.6492C14.0088 18.3679 13.5527 18.3679 13.2715 18.6492C12.9902 18.9305 12.9902 19.3865 13.2715 19.6678L17.1129 23.5091C17.2535 23.6498 17.4379 23.7201 17.6221 23.7201C17.8064 23.7201 17.9908 23.6498 18.1314 23.5091L25.0457 16.5948C25.327 16.3134 25.327 15.8574 25.0458 15.5761Z" fill="#F6CC48"/>
</svg>
