<svg width="19" height="14" viewBox="0 0 19 14" fill="none" xmlns="http://www.w3.org/2000/svg">
<path d="M7.58311 9.77145C7.41964 9.77145 7.26144 9.68708 7.17179 9.53415C7.03995 9.3074 7.11906 9.01736 7.34581 8.88553L11.4907 6.48614L8.05772 4.44534V7.05039C8.05772 7.31406 7.84678 7.52499 7.58311 7.52499C7.31944 7.52499 7.10851 7.31406 7.10851 7.05039V3.61214C7.10851 3.4434 7.19816 3.28519 7.35108 3.20082C7.50401 3.11645 7.68331 3.11645 7.83096 3.20609L12.6772 6.09063C12.8196 6.17501 12.9092 6.33321 12.9092 6.50196C12.9092 6.67071 12.8196 6.82363 12.6719 6.90801L7.82569 9.71345C7.74659 9.75036 7.66749 9.77145 7.58311 9.77145Z" fill="black"/>
<path d="M16.3317 13.4999H2.45212C2.18845 13.4999 1.97752 13.2889 1.97752 13.0253C1.97752 12.7616 2.18845 12.5507 2.45212 12.5507H16.3317C17.2809 12.5507 18.0508 11.7702 18.0508 10.8157V2.68415C18.0508 1.7244 17.2809 0.949209 16.3317 0.949209H2.68415C1.74549 0.949209 0.949209 1.74549 0.949209 2.68415V10.6048C0.949209 10.8684 0.738274 11.0794 0.474604 11.0794C0.210935 11.0794 0 10.8684 0 10.6048V2.68415C0 1.20233 1.20233 0 2.68415 0H16.3317C17.8029 0 19 1.20233 19 2.68415V10.8157C18.9947 12.2975 17.8029 13.4999 16.3317 13.4999Z" fill="black"/>
</svg>
